%TF.GenerationSoftware,KiCad,Pcbnew,9.0.6*%
%TF.CreationDate,2026-01-08T15:16:43+08:00*%
%TF.ProjectId,STM32H7_PEDAL_V9,53544d33-3248-4375-9f50-4544414c5f56,rev?*%
%TF.SameCoordinates,Original*%
%TF.FileFunction,Legend,Bot*%
%TF.FilePolarity,Positive*%
%FSLAX46Y46*%
G04 Gerber Fmt 4.6, Leading zero omitted, Abs format (unit mm)*
G04 Created by KiCad (PCBNEW 9.0.6) date 2026-01-08 15:16:43*
%MOMM*%
%LPD*%
G01*
G04 APERTURE LIST*
%ADD10C,0.150000*%
%ADD11C,0.120000*%
G04 APERTURE END LIST*
D10*
X183402569Y-167501489D02*
X183059712Y-167501489D01*
X183231140Y-168101489D02*
X183231140Y-167501489D01*
X182859711Y-168101489D02*
X182859711Y-167501489D01*
X182859711Y-167501489D02*
X182631140Y-167501489D01*
X182631140Y-167501489D02*
X182573997Y-167530060D01*
X182573997Y-167530060D02*
X182545426Y-167558632D01*
X182545426Y-167558632D02*
X182516854Y-167615775D01*
X182516854Y-167615775D02*
X182516854Y-167701489D01*
X182516854Y-167701489D02*
X182545426Y-167758632D01*
X182545426Y-167758632D02*
X182573997Y-167787203D01*
X182573997Y-167787203D02*
X182631140Y-167815775D01*
X182631140Y-167815775D02*
X182859711Y-167815775D01*
X181973997Y-167501489D02*
X182259711Y-167501489D01*
X182259711Y-167501489D02*
X182288283Y-167787203D01*
X182288283Y-167787203D02*
X182259711Y-167758632D01*
X182259711Y-167758632D02*
X182202569Y-167730060D01*
X182202569Y-167730060D02*
X182059711Y-167730060D01*
X182059711Y-167730060D02*
X182002569Y-167758632D01*
X182002569Y-167758632D02*
X181973997Y-167787203D01*
X181973997Y-167787203D02*
X181945426Y-167844346D01*
X181945426Y-167844346D02*
X181945426Y-167987203D01*
X181945426Y-167987203D02*
X181973997Y-168044346D01*
X181973997Y-168044346D02*
X182002569Y-168072918D01*
X182002569Y-168072918D02*
X182059711Y-168101489D01*
X182059711Y-168101489D02*
X182202569Y-168101489D01*
X182202569Y-168101489D02*
X182259711Y-168072918D01*
X182259711Y-168072918D02*
X182288283Y-168044346D01*
X181402568Y-167501489D02*
X181688282Y-167501489D01*
X181688282Y-167501489D02*
X181716854Y-167787203D01*
X181716854Y-167787203D02*
X181688282Y-167758632D01*
X181688282Y-167758632D02*
X181631140Y-167730060D01*
X181631140Y-167730060D02*
X181488282Y-167730060D01*
X181488282Y-167730060D02*
X181431140Y-167758632D01*
X181431140Y-167758632D02*
X181402568Y-167787203D01*
X181402568Y-167787203D02*
X181373997Y-167844346D01*
X181373997Y-167844346D02*
X181373997Y-167987203D01*
X181373997Y-167987203D02*
X181402568Y-168044346D01*
X181402568Y-168044346D02*
X181431140Y-168072918D01*
X181431140Y-168072918D02*
X181488282Y-168101489D01*
X181488282Y-168101489D02*
X181631140Y-168101489D01*
X181631140Y-168101489D02*
X181688282Y-168072918D01*
X181688282Y-168072918D02*
X181716854Y-168044346D01*
X183852569Y-162001489D02*
X183509712Y-162001489D01*
X183681140Y-162601489D02*
X183681140Y-162001489D01*
X183309711Y-162601489D02*
X183309711Y-162001489D01*
X183309711Y-162001489D02*
X183081140Y-162001489D01*
X183081140Y-162001489D02*
X183023997Y-162030060D01*
X183023997Y-162030060D02*
X182995426Y-162058632D01*
X182995426Y-162058632D02*
X182966854Y-162115775D01*
X182966854Y-162115775D02*
X182966854Y-162201489D01*
X182966854Y-162201489D02*
X182995426Y-162258632D01*
X182995426Y-162258632D02*
X183023997Y-162287203D01*
X183023997Y-162287203D02*
X183081140Y-162315775D01*
X183081140Y-162315775D02*
X183309711Y-162315775D01*
X182423997Y-162001489D02*
X182709711Y-162001489D01*
X182709711Y-162001489D02*
X182738283Y-162287203D01*
X182738283Y-162287203D02*
X182709711Y-162258632D01*
X182709711Y-162258632D02*
X182652569Y-162230060D01*
X182652569Y-162230060D02*
X182509711Y-162230060D01*
X182509711Y-162230060D02*
X182452569Y-162258632D01*
X182452569Y-162258632D02*
X182423997Y-162287203D01*
X182423997Y-162287203D02*
X182395426Y-162344346D01*
X182395426Y-162344346D02*
X182395426Y-162487203D01*
X182395426Y-162487203D02*
X182423997Y-162544346D01*
X182423997Y-162544346D02*
X182452569Y-162572918D01*
X182452569Y-162572918D02*
X182509711Y-162601489D01*
X182509711Y-162601489D02*
X182652569Y-162601489D01*
X182652569Y-162601489D02*
X182709711Y-162572918D01*
X182709711Y-162572918D02*
X182738283Y-162544346D01*
X181881140Y-162201489D02*
X181881140Y-162601489D01*
X182023997Y-161972918D02*
X182166854Y-162401489D01*
X182166854Y-162401489D02*
X181795425Y-162401489D01*
X249216855Y-142651489D02*
X248873998Y-142651489D01*
X249045426Y-143251489D02*
X249045426Y-142651489D01*
X248673997Y-143251489D02*
X248673997Y-142651489D01*
X248673997Y-142651489D02*
X248445426Y-142651489D01*
X248445426Y-142651489D02*
X248388283Y-142680060D01*
X248388283Y-142680060D02*
X248359712Y-142708632D01*
X248359712Y-142708632D02*
X248331140Y-142765775D01*
X248331140Y-142765775D02*
X248331140Y-142851489D01*
X248331140Y-142851489D02*
X248359712Y-142908632D01*
X248359712Y-142908632D02*
X248388283Y-142937203D01*
X248388283Y-142937203D02*
X248445426Y-142965775D01*
X248445426Y-142965775D02*
X248673997Y-142965775D01*
X248045426Y-143251489D02*
X247931140Y-143251489D01*
X247931140Y-143251489D02*
X247873997Y-143222918D01*
X247873997Y-143222918D02*
X247845426Y-143194346D01*
X247845426Y-143194346D02*
X247788283Y-143108632D01*
X247788283Y-143108632D02*
X247759712Y-142994346D01*
X247759712Y-142994346D02*
X247759712Y-142765775D01*
X247759712Y-142765775D02*
X247788283Y-142708632D01*
X247788283Y-142708632D02*
X247816855Y-142680060D01*
X247816855Y-142680060D02*
X247873997Y-142651489D01*
X247873997Y-142651489D02*
X247988283Y-142651489D01*
X247988283Y-142651489D02*
X248045426Y-142680060D01*
X248045426Y-142680060D02*
X248073997Y-142708632D01*
X248073997Y-142708632D02*
X248102569Y-142765775D01*
X248102569Y-142765775D02*
X248102569Y-142908632D01*
X248102569Y-142908632D02*
X248073997Y-142965775D01*
X248073997Y-142965775D02*
X248045426Y-142994346D01*
X248045426Y-142994346D02*
X247988283Y-143022918D01*
X247988283Y-143022918D02*
X247873997Y-143022918D01*
X247873997Y-143022918D02*
X247816855Y-142994346D01*
X247816855Y-142994346D02*
X247788283Y-142965775D01*
X247788283Y-142965775D02*
X247759712Y-142908632D01*
X182699582Y-134601489D02*
X182356725Y-134601489D01*
X182528153Y-135201489D02*
X182528153Y-134601489D01*
X182156724Y-135201489D02*
X182156724Y-134601489D01*
X182156724Y-134601489D02*
X181928153Y-134601489D01*
X181928153Y-134601489D02*
X181871010Y-134630060D01*
X181871010Y-134630060D02*
X181842439Y-134658632D01*
X181842439Y-134658632D02*
X181813867Y-134715775D01*
X181813867Y-134715775D02*
X181813867Y-134801489D01*
X181813867Y-134801489D02*
X181842439Y-134858632D01*
X181842439Y-134858632D02*
X181871010Y-134887203D01*
X181871010Y-134887203D02*
X181928153Y-134915775D01*
X181928153Y-134915775D02*
X182156724Y-134915775D01*
X181299582Y-134801489D02*
X181299582Y-135201489D01*
X181442439Y-134572918D02*
X181585296Y-135001489D01*
X181585296Y-135001489D02*
X181213867Y-135001489D01*
X181013867Y-134658632D02*
X180985295Y-134630060D01*
X180985295Y-134630060D02*
X180928153Y-134601489D01*
X180928153Y-134601489D02*
X180785295Y-134601489D01*
X180785295Y-134601489D02*
X180728153Y-134630060D01*
X180728153Y-134630060D02*
X180699581Y-134658632D01*
X180699581Y-134658632D02*
X180671010Y-134715775D01*
X180671010Y-134715775D02*
X180671010Y-134772918D01*
X180671010Y-134772918D02*
X180699581Y-134858632D01*
X180699581Y-134858632D02*
X181042438Y-135201489D01*
X181042438Y-135201489D02*
X180671010Y-135201489D01*
X175099582Y-126001489D02*
X174756725Y-126001489D01*
X174928153Y-126601489D02*
X174928153Y-126001489D01*
X174556724Y-126601489D02*
X174556724Y-126001489D01*
X174556724Y-126001489D02*
X174328153Y-126001489D01*
X174328153Y-126001489D02*
X174271010Y-126030060D01*
X174271010Y-126030060D02*
X174242439Y-126058632D01*
X174242439Y-126058632D02*
X174213867Y-126115775D01*
X174213867Y-126115775D02*
X174213867Y-126201489D01*
X174213867Y-126201489D02*
X174242439Y-126258632D01*
X174242439Y-126258632D02*
X174271010Y-126287203D01*
X174271010Y-126287203D02*
X174328153Y-126315775D01*
X174328153Y-126315775D02*
X174556724Y-126315775D01*
X174013867Y-126001489D02*
X173642439Y-126001489D01*
X173642439Y-126001489D02*
X173842439Y-126230060D01*
X173842439Y-126230060D02*
X173756724Y-126230060D01*
X173756724Y-126230060D02*
X173699582Y-126258632D01*
X173699582Y-126258632D02*
X173671010Y-126287203D01*
X173671010Y-126287203D02*
X173642439Y-126344346D01*
X173642439Y-126344346D02*
X173642439Y-126487203D01*
X173642439Y-126487203D02*
X173671010Y-126544346D01*
X173671010Y-126544346D02*
X173699582Y-126572918D01*
X173699582Y-126572918D02*
X173756724Y-126601489D01*
X173756724Y-126601489D02*
X173928153Y-126601489D01*
X173928153Y-126601489D02*
X173985296Y-126572918D01*
X173985296Y-126572918D02*
X174013867Y-126544346D01*
X173356724Y-126601489D02*
X173242438Y-126601489D01*
X173242438Y-126601489D02*
X173185295Y-126572918D01*
X173185295Y-126572918D02*
X173156724Y-126544346D01*
X173156724Y-126544346D02*
X173099581Y-126458632D01*
X173099581Y-126458632D02*
X173071010Y-126344346D01*
X173071010Y-126344346D02*
X173071010Y-126115775D01*
X173071010Y-126115775D02*
X173099581Y-126058632D01*
X173099581Y-126058632D02*
X173128153Y-126030060D01*
X173128153Y-126030060D02*
X173185295Y-126001489D01*
X173185295Y-126001489D02*
X173299581Y-126001489D01*
X173299581Y-126001489D02*
X173356724Y-126030060D01*
X173356724Y-126030060D02*
X173385295Y-126058632D01*
X173385295Y-126058632D02*
X173413867Y-126115775D01*
X173413867Y-126115775D02*
X173413867Y-126258632D01*
X173413867Y-126258632D02*
X173385295Y-126315775D01*
X173385295Y-126315775D02*
X173356724Y-126344346D01*
X173356724Y-126344346D02*
X173299581Y-126372918D01*
X173299581Y-126372918D02*
X173185295Y-126372918D01*
X173185295Y-126372918D02*
X173128153Y-126344346D01*
X173128153Y-126344346D02*
X173099581Y-126315775D01*
X173099581Y-126315775D02*
X173071010Y-126258632D01*
X176299582Y-135201489D02*
X175956725Y-135201489D01*
X176128153Y-135801489D02*
X176128153Y-135201489D01*
X175756724Y-135801489D02*
X175756724Y-135201489D01*
X175756724Y-135201489D02*
X175528153Y-135201489D01*
X175528153Y-135201489D02*
X175471010Y-135230060D01*
X175471010Y-135230060D02*
X175442439Y-135258632D01*
X175442439Y-135258632D02*
X175413867Y-135315775D01*
X175413867Y-135315775D02*
X175413867Y-135401489D01*
X175413867Y-135401489D02*
X175442439Y-135458632D01*
X175442439Y-135458632D02*
X175471010Y-135487203D01*
X175471010Y-135487203D02*
X175528153Y-135515775D01*
X175528153Y-135515775D02*
X175756724Y-135515775D01*
X174899582Y-135401489D02*
X174899582Y-135801489D01*
X175042439Y-135172918D02*
X175185296Y-135601489D01*
X175185296Y-135601489D02*
X174813867Y-135601489D01*
X174642438Y-135201489D02*
X174271010Y-135201489D01*
X174271010Y-135201489D02*
X174471010Y-135430060D01*
X174471010Y-135430060D02*
X174385295Y-135430060D01*
X174385295Y-135430060D02*
X174328153Y-135458632D01*
X174328153Y-135458632D02*
X174299581Y-135487203D01*
X174299581Y-135487203D02*
X174271010Y-135544346D01*
X174271010Y-135544346D02*
X174271010Y-135687203D01*
X174271010Y-135687203D02*
X174299581Y-135744346D01*
X174299581Y-135744346D02*
X174328153Y-135772918D01*
X174328153Y-135772918D02*
X174385295Y-135801489D01*
X174385295Y-135801489D02*
X174556724Y-135801489D01*
X174556724Y-135801489D02*
X174613867Y-135772918D01*
X174613867Y-135772918D02*
X174642438Y-135744346D01*
X244414400Y-143711096D02*
X244071543Y-143711096D01*
X244242971Y-144311096D02*
X244242971Y-143711096D01*
X243871542Y-144311096D02*
X243871542Y-143711096D01*
X243871542Y-143711096D02*
X243642971Y-143711096D01*
X243642971Y-143711096D02*
X243585828Y-143739667D01*
X243585828Y-143739667D02*
X243557257Y-143768239D01*
X243557257Y-143768239D02*
X243528685Y-143825382D01*
X243528685Y-143825382D02*
X243528685Y-143911096D01*
X243528685Y-143911096D02*
X243557257Y-143968239D01*
X243557257Y-143968239D02*
X243585828Y-143996810D01*
X243585828Y-143996810D02*
X243642971Y-144025382D01*
X243642971Y-144025382D02*
X243871542Y-144025382D01*
X243185828Y-143968239D02*
X243242971Y-143939667D01*
X243242971Y-143939667D02*
X243271542Y-143911096D01*
X243271542Y-143911096D02*
X243300114Y-143853953D01*
X243300114Y-143853953D02*
X243300114Y-143825382D01*
X243300114Y-143825382D02*
X243271542Y-143768239D01*
X243271542Y-143768239D02*
X243242971Y-143739667D01*
X243242971Y-143739667D02*
X243185828Y-143711096D01*
X243185828Y-143711096D02*
X243071542Y-143711096D01*
X243071542Y-143711096D02*
X243014400Y-143739667D01*
X243014400Y-143739667D02*
X242985828Y-143768239D01*
X242985828Y-143768239D02*
X242957257Y-143825382D01*
X242957257Y-143825382D02*
X242957257Y-143853953D01*
X242957257Y-143853953D02*
X242985828Y-143911096D01*
X242985828Y-143911096D02*
X243014400Y-143939667D01*
X243014400Y-143939667D02*
X243071542Y-143968239D01*
X243071542Y-143968239D02*
X243185828Y-143968239D01*
X243185828Y-143968239D02*
X243242971Y-143996810D01*
X243242971Y-143996810D02*
X243271542Y-144025382D01*
X243271542Y-144025382D02*
X243300114Y-144082525D01*
X243300114Y-144082525D02*
X243300114Y-144196810D01*
X243300114Y-144196810D02*
X243271542Y-144253953D01*
X243271542Y-144253953D02*
X243242971Y-144282525D01*
X243242971Y-144282525D02*
X243185828Y-144311096D01*
X243185828Y-144311096D02*
X243071542Y-144311096D01*
X243071542Y-144311096D02*
X243014400Y-144282525D01*
X243014400Y-144282525D02*
X242985828Y-144253953D01*
X242985828Y-144253953D02*
X242957257Y-144196810D01*
X242957257Y-144196810D02*
X242957257Y-144082525D01*
X242957257Y-144082525D02*
X242985828Y-144025382D01*
X242985828Y-144025382D02*
X243014400Y-143996810D01*
X243014400Y-143996810D02*
X243071542Y-143968239D01*
X174699582Y-132101489D02*
X174356725Y-132101489D01*
X174528153Y-132701489D02*
X174528153Y-132101489D01*
X174156724Y-132701489D02*
X174156724Y-132101489D01*
X174156724Y-132101489D02*
X173928153Y-132101489D01*
X173928153Y-132101489D02*
X173871010Y-132130060D01*
X173871010Y-132130060D02*
X173842439Y-132158632D01*
X173842439Y-132158632D02*
X173813867Y-132215775D01*
X173813867Y-132215775D02*
X173813867Y-132301489D01*
X173813867Y-132301489D02*
X173842439Y-132358632D01*
X173842439Y-132358632D02*
X173871010Y-132387203D01*
X173871010Y-132387203D02*
X173928153Y-132415775D01*
X173928153Y-132415775D02*
X174156724Y-132415775D01*
X173299582Y-132301489D02*
X173299582Y-132701489D01*
X173442439Y-132072918D02*
X173585296Y-132501489D01*
X173585296Y-132501489D02*
X173213867Y-132501489D01*
X172728153Y-132301489D02*
X172728153Y-132701489D01*
X172871010Y-132072918D02*
X173013867Y-132501489D01*
X173013867Y-132501489D02*
X172642438Y-132501489D01*
X238702569Y-140501489D02*
X238359712Y-140501489D01*
X238531140Y-141101489D02*
X238531140Y-140501489D01*
X238159711Y-141101489D02*
X238159711Y-140501489D01*
X238159711Y-140501489D02*
X237931140Y-140501489D01*
X237931140Y-140501489D02*
X237873997Y-140530060D01*
X237873997Y-140530060D02*
X237845426Y-140558632D01*
X237845426Y-140558632D02*
X237816854Y-140615775D01*
X237816854Y-140615775D02*
X237816854Y-140701489D01*
X237816854Y-140701489D02*
X237845426Y-140758632D01*
X237845426Y-140758632D02*
X237873997Y-140787203D01*
X237873997Y-140787203D02*
X237931140Y-140815775D01*
X237931140Y-140815775D02*
X238159711Y-140815775D01*
X237245426Y-141101489D02*
X237588283Y-141101489D01*
X237416854Y-141101489D02*
X237416854Y-140501489D01*
X237416854Y-140501489D02*
X237473997Y-140587203D01*
X237473997Y-140587203D02*
X237531140Y-140644346D01*
X237531140Y-140644346D02*
X237588283Y-140672918D01*
X237045425Y-140501489D02*
X236673997Y-140501489D01*
X236673997Y-140501489D02*
X236873997Y-140730060D01*
X236873997Y-140730060D02*
X236788282Y-140730060D01*
X236788282Y-140730060D02*
X236731140Y-140758632D01*
X236731140Y-140758632D02*
X236702568Y-140787203D01*
X236702568Y-140787203D02*
X236673997Y-140844346D01*
X236673997Y-140844346D02*
X236673997Y-140987203D01*
X236673997Y-140987203D02*
X236702568Y-141044346D01*
X236702568Y-141044346D02*
X236731140Y-141072918D01*
X236731140Y-141072918D02*
X236788282Y-141101489D01*
X236788282Y-141101489D02*
X236959711Y-141101489D01*
X236959711Y-141101489D02*
X237016854Y-141072918D01*
X237016854Y-141072918D02*
X237045425Y-141044346D01*
X254416855Y-140701489D02*
X254073998Y-140701489D01*
X254245426Y-141301489D02*
X254245426Y-140701489D01*
X253873997Y-141301489D02*
X253873997Y-140701489D01*
X253873997Y-140701489D02*
X253645426Y-140701489D01*
X253645426Y-140701489D02*
X253588283Y-140730060D01*
X253588283Y-140730060D02*
X253559712Y-140758632D01*
X253559712Y-140758632D02*
X253531140Y-140815775D01*
X253531140Y-140815775D02*
X253531140Y-140901489D01*
X253531140Y-140901489D02*
X253559712Y-140958632D01*
X253559712Y-140958632D02*
X253588283Y-140987203D01*
X253588283Y-140987203D02*
X253645426Y-141015775D01*
X253645426Y-141015775D02*
X253873997Y-141015775D01*
X253331140Y-140701489D02*
X252931140Y-140701489D01*
X252931140Y-140701489D02*
X253188283Y-141301489D01*
X241402569Y-139701489D02*
X241059712Y-139701489D01*
X241231140Y-140301489D02*
X241231140Y-139701489D01*
X240859711Y-140301489D02*
X240859711Y-139701489D01*
X240859711Y-139701489D02*
X240631140Y-139701489D01*
X240631140Y-139701489D02*
X240573997Y-139730060D01*
X240573997Y-139730060D02*
X240545426Y-139758632D01*
X240545426Y-139758632D02*
X240516854Y-139815775D01*
X240516854Y-139815775D02*
X240516854Y-139901489D01*
X240516854Y-139901489D02*
X240545426Y-139958632D01*
X240545426Y-139958632D02*
X240573997Y-139987203D01*
X240573997Y-139987203D02*
X240631140Y-140015775D01*
X240631140Y-140015775D02*
X240859711Y-140015775D01*
X239945426Y-140301489D02*
X240288283Y-140301489D01*
X240116854Y-140301489D02*
X240116854Y-139701489D01*
X240116854Y-139701489D02*
X240173997Y-139787203D01*
X240173997Y-139787203D02*
X240231140Y-139844346D01*
X240231140Y-139844346D02*
X240288283Y-139872918D01*
X239431140Y-139901489D02*
X239431140Y-140301489D01*
X239573997Y-139672918D02*
X239716854Y-140101489D01*
X239716854Y-140101489D02*
X239345425Y-140101489D01*
X177699582Y-131601489D02*
X177356725Y-131601489D01*
X177528153Y-132201489D02*
X177528153Y-131601489D01*
X177156724Y-132201489D02*
X177156724Y-131601489D01*
X177156724Y-131601489D02*
X176928153Y-131601489D01*
X176928153Y-131601489D02*
X176871010Y-131630060D01*
X176871010Y-131630060D02*
X176842439Y-131658632D01*
X176842439Y-131658632D02*
X176813867Y-131715775D01*
X176813867Y-131715775D02*
X176813867Y-131801489D01*
X176813867Y-131801489D02*
X176842439Y-131858632D01*
X176842439Y-131858632D02*
X176871010Y-131887203D01*
X176871010Y-131887203D02*
X176928153Y-131915775D01*
X176928153Y-131915775D02*
X177156724Y-131915775D01*
X176299582Y-131801489D02*
X176299582Y-132201489D01*
X176442439Y-131572918D02*
X176585296Y-132001489D01*
X176585296Y-132001489D02*
X176213867Y-132001489D01*
X175671010Y-132201489D02*
X176013867Y-132201489D01*
X175842438Y-132201489D02*
X175842438Y-131601489D01*
X175842438Y-131601489D02*
X175899581Y-131687203D01*
X175899581Y-131687203D02*
X175956724Y-131744346D01*
X175956724Y-131744346D02*
X176013867Y-131772918D01*
X252252569Y-141751489D02*
X251909712Y-141751489D01*
X252081140Y-142351489D02*
X252081140Y-141751489D01*
X251709711Y-142351489D02*
X251709711Y-141751489D01*
X251709711Y-141751489D02*
X251481140Y-141751489D01*
X251481140Y-141751489D02*
X251423997Y-141780060D01*
X251423997Y-141780060D02*
X251395426Y-141808632D01*
X251395426Y-141808632D02*
X251366854Y-141865775D01*
X251366854Y-141865775D02*
X251366854Y-141951489D01*
X251366854Y-141951489D02*
X251395426Y-142008632D01*
X251395426Y-142008632D02*
X251423997Y-142037203D01*
X251423997Y-142037203D02*
X251481140Y-142065775D01*
X251481140Y-142065775D02*
X251709711Y-142065775D01*
X250795426Y-142351489D02*
X251138283Y-142351489D01*
X250966854Y-142351489D02*
X250966854Y-141751489D01*
X250966854Y-141751489D02*
X251023997Y-141837203D01*
X251023997Y-141837203D02*
X251081140Y-141894346D01*
X251081140Y-141894346D02*
X251138283Y-141922918D01*
X250223997Y-142351489D02*
X250566854Y-142351489D01*
X250395425Y-142351489D02*
X250395425Y-141751489D01*
X250395425Y-141751489D02*
X250452568Y-141837203D01*
X250452568Y-141837203D02*
X250509711Y-141894346D01*
X250509711Y-141894346D02*
X250566854Y-141922918D01*
X246402569Y-138201489D02*
X246059712Y-138201489D01*
X246231140Y-138801489D02*
X246231140Y-138201489D01*
X245859711Y-138801489D02*
X245859711Y-138201489D01*
X245859711Y-138201489D02*
X245631140Y-138201489D01*
X245631140Y-138201489D02*
X245573997Y-138230060D01*
X245573997Y-138230060D02*
X245545426Y-138258632D01*
X245545426Y-138258632D02*
X245516854Y-138315775D01*
X245516854Y-138315775D02*
X245516854Y-138401489D01*
X245516854Y-138401489D02*
X245545426Y-138458632D01*
X245545426Y-138458632D02*
X245573997Y-138487203D01*
X245573997Y-138487203D02*
X245631140Y-138515775D01*
X245631140Y-138515775D02*
X245859711Y-138515775D01*
X244945426Y-138801489D02*
X245288283Y-138801489D01*
X245116854Y-138801489D02*
X245116854Y-138201489D01*
X245116854Y-138201489D02*
X245173997Y-138287203D01*
X245173997Y-138287203D02*
X245231140Y-138344346D01*
X245231140Y-138344346D02*
X245288283Y-138372918D01*
X244431140Y-138201489D02*
X244545425Y-138201489D01*
X244545425Y-138201489D02*
X244602568Y-138230060D01*
X244602568Y-138230060D02*
X244631140Y-138258632D01*
X244631140Y-138258632D02*
X244688282Y-138344346D01*
X244688282Y-138344346D02*
X244716854Y-138458632D01*
X244716854Y-138458632D02*
X244716854Y-138687203D01*
X244716854Y-138687203D02*
X244688282Y-138744346D01*
X244688282Y-138744346D02*
X244659711Y-138772918D01*
X244659711Y-138772918D02*
X244602568Y-138801489D01*
X244602568Y-138801489D02*
X244488282Y-138801489D01*
X244488282Y-138801489D02*
X244431140Y-138772918D01*
X244431140Y-138772918D02*
X244402568Y-138744346D01*
X244402568Y-138744346D02*
X244373997Y-138687203D01*
X244373997Y-138687203D02*
X244373997Y-138544346D01*
X244373997Y-138544346D02*
X244402568Y-138487203D01*
X244402568Y-138487203D02*
X244431140Y-138458632D01*
X244431140Y-138458632D02*
X244488282Y-138430060D01*
X244488282Y-138430060D02*
X244602568Y-138430060D01*
X244602568Y-138430060D02*
X244659711Y-138458632D01*
X244659711Y-138458632D02*
X244688282Y-138487203D01*
X244688282Y-138487203D02*
X244716854Y-138544346D01*
X179899582Y-138201489D02*
X179556725Y-138201489D01*
X179728153Y-138801489D02*
X179728153Y-138201489D01*
X179356724Y-138801489D02*
X179356724Y-138201489D01*
X179356724Y-138201489D02*
X179128153Y-138201489D01*
X179128153Y-138201489D02*
X179071010Y-138230060D01*
X179071010Y-138230060D02*
X179042439Y-138258632D01*
X179042439Y-138258632D02*
X179013867Y-138315775D01*
X179013867Y-138315775D02*
X179013867Y-138401489D01*
X179013867Y-138401489D02*
X179042439Y-138458632D01*
X179042439Y-138458632D02*
X179071010Y-138487203D01*
X179071010Y-138487203D02*
X179128153Y-138515775D01*
X179128153Y-138515775D02*
X179356724Y-138515775D01*
X178499582Y-138401489D02*
X178499582Y-138801489D01*
X178642439Y-138172918D02*
X178785296Y-138601489D01*
X178785296Y-138601489D02*
X178413867Y-138601489D01*
X178071010Y-138201489D02*
X178013867Y-138201489D01*
X178013867Y-138201489D02*
X177956724Y-138230060D01*
X177956724Y-138230060D02*
X177928153Y-138258632D01*
X177928153Y-138258632D02*
X177899581Y-138315775D01*
X177899581Y-138315775D02*
X177871010Y-138430060D01*
X177871010Y-138430060D02*
X177871010Y-138572918D01*
X177871010Y-138572918D02*
X177899581Y-138687203D01*
X177899581Y-138687203D02*
X177928153Y-138744346D01*
X177928153Y-138744346D02*
X177956724Y-138772918D01*
X177956724Y-138772918D02*
X178013867Y-138801489D01*
X178013867Y-138801489D02*
X178071010Y-138801489D01*
X178071010Y-138801489D02*
X178128153Y-138772918D01*
X178128153Y-138772918D02*
X178156724Y-138744346D01*
X178156724Y-138744346D02*
X178185295Y-138687203D01*
X178185295Y-138687203D02*
X178213867Y-138572918D01*
X178213867Y-138572918D02*
X178213867Y-138430060D01*
X178213867Y-138430060D02*
X178185295Y-138315775D01*
X178185295Y-138315775D02*
X178156724Y-138258632D01*
X178156724Y-138258632D02*
X178128153Y-138230060D01*
X178128153Y-138230060D02*
X178071010Y-138201489D01*
X243902569Y-139001489D02*
X243559712Y-139001489D01*
X243731140Y-139601489D02*
X243731140Y-139001489D01*
X243359711Y-139601489D02*
X243359711Y-139001489D01*
X243359711Y-139001489D02*
X243131140Y-139001489D01*
X243131140Y-139001489D02*
X243073997Y-139030060D01*
X243073997Y-139030060D02*
X243045426Y-139058632D01*
X243045426Y-139058632D02*
X243016854Y-139115775D01*
X243016854Y-139115775D02*
X243016854Y-139201489D01*
X243016854Y-139201489D02*
X243045426Y-139258632D01*
X243045426Y-139258632D02*
X243073997Y-139287203D01*
X243073997Y-139287203D02*
X243131140Y-139315775D01*
X243131140Y-139315775D02*
X243359711Y-139315775D01*
X242445426Y-139601489D02*
X242788283Y-139601489D01*
X242616854Y-139601489D02*
X242616854Y-139001489D01*
X242616854Y-139001489D02*
X242673997Y-139087203D01*
X242673997Y-139087203D02*
X242731140Y-139144346D01*
X242731140Y-139144346D02*
X242788283Y-139172918D01*
X241902568Y-139001489D02*
X242188282Y-139001489D01*
X242188282Y-139001489D02*
X242216854Y-139287203D01*
X242216854Y-139287203D02*
X242188282Y-139258632D01*
X242188282Y-139258632D02*
X242131140Y-139230060D01*
X242131140Y-139230060D02*
X241988282Y-139230060D01*
X241988282Y-139230060D02*
X241931140Y-139258632D01*
X241931140Y-139258632D02*
X241902568Y-139287203D01*
X241902568Y-139287203D02*
X241873997Y-139344346D01*
X241873997Y-139344346D02*
X241873997Y-139487203D01*
X241873997Y-139487203D02*
X241902568Y-139544346D01*
X241902568Y-139544346D02*
X241931140Y-139572918D01*
X241931140Y-139572918D02*
X241988282Y-139601489D01*
X241988282Y-139601489D02*
X242131140Y-139601489D01*
X242131140Y-139601489D02*
X242188282Y-139572918D01*
X242188282Y-139572918D02*
X242216854Y-139544346D01*
D11*
%TO.C,TP55*%
X182859712Y-166331718D02*
G75*
G02*
X181459712Y-166331718I-700000J0D01*
G01*
X181459712Y-166331718D02*
G75*
G02*
X182859712Y-166331718I700000J0D01*
G01*
%TO.C,TP54*%
X183659712Y-163531718D02*
G75*
G02*
X182259712Y-163531718I-700000J0D01*
G01*
X182259712Y-163531718D02*
G75*
G02*
X183659712Y-163531718I700000J0D01*
G01*
%TO.C,TP9*%
X247859712Y-141981718D02*
G75*
G02*
X246459712Y-141981718I-700000J0D01*
G01*
X246459712Y-141981718D02*
G75*
G02*
X247859712Y-141981718I700000J0D01*
G01*
%TO.C,TP42*%
X180356725Y-135131718D02*
G75*
G02*
X178956725Y-135131718I-700000J0D01*
G01*
X178956725Y-135131718D02*
G75*
G02*
X180356725Y-135131718I700000J0D01*
G01*
%TO.C,TP39*%
X176756725Y-126131718D02*
G75*
G02*
X175356725Y-126131718I-700000J0D01*
G01*
X175356725Y-126131718D02*
G75*
G02*
X176756725Y-126131718I700000J0D01*
G01*
%TO.C,TP43*%
X178156725Y-135531718D02*
G75*
G02*
X176756725Y-135531718I-700000J0D01*
G01*
X176756725Y-135531718D02*
G75*
G02*
X178156725Y-135531718I700000J0D01*
G01*
%TO.C,TP8*%
X245457257Y-142741325D02*
G75*
G02*
X244057257Y-142741325I-700000J0D01*
G01*
X244057257Y-142741325D02*
G75*
G02*
X245457257Y-142741325I700000J0D01*
G01*
%TO.C,TP44*%
X175135468Y-133633685D02*
G75*
G02*
X173735468Y-133633685I-700000J0D01*
G01*
X173735468Y-133633685D02*
G75*
G02*
X175135468Y-133633685I700000J0D01*
G01*
%TO.C,TP13*%
X238359712Y-139331718D02*
G75*
G02*
X236959712Y-139331718I-700000J0D01*
G01*
X236959712Y-139331718D02*
G75*
G02*
X238359712Y-139331718I700000J0D01*
G01*
%TO.C,TP7*%
X252459712Y-140331718D02*
G75*
G02*
X251059712Y-140331718I-700000J0D01*
G01*
X251059712Y-140331718D02*
G75*
G02*
X252459712Y-140331718I700000J0D01*
G01*
%TO.C,TP14*%
X240959712Y-138531718D02*
G75*
G02*
X239559712Y-138531718I-700000J0D01*
G01*
X239559712Y-138531718D02*
G75*
G02*
X240959712Y-138531718I700000J0D01*
G01*
%TO.C,TP41*%
X177356725Y-133331718D02*
G75*
G02*
X175956725Y-133331718I-700000J0D01*
G01*
X175956725Y-133331718D02*
G75*
G02*
X177356725Y-133331718I700000J0D01*
G01*
%TO.C,TP11*%
X250209712Y-141181718D02*
G75*
G02*
X248809712Y-141181718I-700000J0D01*
G01*
X248809712Y-141181718D02*
G75*
G02*
X250209712Y-141181718I700000J0D01*
G01*
%TO.C,TP16*%
X245959712Y-136931718D02*
G75*
G02*
X244559712Y-136931718I-700000J0D01*
G01*
X244559712Y-136931718D02*
G75*
G02*
X245959712Y-136931718I700000J0D01*
G01*
%TO.C,TP40*%
X181756725Y-138531718D02*
G75*
G02*
X180356725Y-138531718I-700000J0D01*
G01*
X180356725Y-138531718D02*
G75*
G02*
X181756725Y-138531718I700000J0D01*
G01*
%TO.C,TP15*%
X243511757Y-137731718D02*
G75*
G02*
X242111757Y-137731718I-700000J0D01*
G01*
X242111757Y-137731718D02*
G75*
G02*
X243511757Y-137731718I700000J0D01*
G01*
%TD*%
M02*
