%TF.GenerationSoftware,KiCad,Pcbnew,9.0.6*%
%TF.CreationDate,2026-01-08T15:16:43+08:00*%
%TF.ProjectId,STM32H7_PEDAL_V9,53544d33-3248-4375-9f50-4544414c5f56,rev?*%
%TF.SameCoordinates,Original*%
%TF.FileFunction,Soldermask,Top*%
%TF.FilePolarity,Negative*%
%FSLAX46Y46*%
G04 Gerber Fmt 4.6, Leading zero omitted, Abs format (unit mm)*
G04 Created by KiCad (PCBNEW 9.0.6) date 2026-01-08 15:16:43*
%MOMM*%
%LPD*%
G01*
G04 APERTURE LIST*
G04 Aperture macros list*
%AMRoundRect*
0 Rectangle with rounded corners*
0 $1 Rounding radius*
0 $2 $3 $4 $5 $6 $7 $8 $9 X,Y pos of 4 corners*
0 Add a 4 corners polygon primitive as box body*
4,1,4,$2,$3,$4,$5,$6,$7,$8,$9,$2,$3,0*
0 Add four circle primitives for the rounded corners*
1,1,$1+$1,$2,$3*
1,1,$1+$1,$4,$5*
1,1,$1+$1,$6,$7*
1,1,$1+$1,$8,$9*
0 Add four rect primitives between the rounded corners*
20,1,$1+$1,$2,$3,$4,$5,0*
20,1,$1+$1,$4,$5,$6,$7,0*
20,1,$1+$1,$6,$7,$8,$9,0*
20,1,$1+$1,$8,$9,$2,$3,0*%
G04 Aperture macros list end*
%ADD10RoundRect,0.218750X0.256250X-0.218750X0.256250X0.218750X-0.256250X0.218750X-0.256250X-0.218750X0*%
%ADD11RoundRect,0.225000X-0.225000X-0.250000X0.225000X-0.250000X0.225000X0.250000X-0.225000X0.250000X0*%
%ADD12RoundRect,0.200000X-0.200000X-0.275000X0.200000X-0.275000X0.200000X0.275000X-0.200000X0.275000X0*%
%ADD13RoundRect,0.200000X0.450000X-0.200000X0.450000X0.200000X-0.450000X0.200000X-0.450000X-0.200000X0*%
%ADD14RoundRect,0.250001X1.249999X-0.799999X1.249999X0.799999X-1.249999X0.799999X-1.249999X-0.799999X0*%
%ADD15C,1.000000*%
%ADD16RoundRect,0.200000X0.200000X0.275000X-0.200000X0.275000X-0.200000X-0.275000X0.200000X-0.275000X0*%
%ADD17RoundRect,0.056750X0.320250X0.170250X-0.320250X0.170250X-0.320250X-0.170250X0.320250X-0.170250X0*%
%ADD18RoundRect,0.050500X0.326500X0.151500X-0.326500X0.151500X-0.326500X-0.151500X0.326500X-0.151500X0*%
%ADD19RoundRect,0.063000X0.189000X0.339000X-0.189000X0.339000X-0.189000X-0.339000X0.189000X-0.339000X0*%
%ADD20RoundRect,0.200000X-0.275000X0.200000X-0.275000X-0.200000X0.275000X-0.200000X0.275000X0.200000X0*%
%ADD21RoundRect,0.225000X0.225000X0.250000X-0.225000X0.250000X-0.225000X-0.250000X0.225000X-0.250000X0*%
%ADD22RoundRect,0.150000X0.512500X0.150000X-0.512500X0.150000X-0.512500X-0.150000X0.512500X-0.150000X0*%
%ADD23RoundRect,0.225000X-0.250000X0.225000X-0.250000X-0.225000X0.250000X-0.225000X0.250000X0.225000X0*%
%ADD24C,2.100000*%
%ADD25C,1.750000*%
%ADD26RoundRect,0.225000X0.250000X-0.225000X0.250000X0.225000X-0.250000X0.225000X-0.250000X-0.225000X0*%
%ADD27RoundRect,0.218750X-0.256250X0.218750X-0.256250X-0.218750X0.256250X-0.218750X0.256250X0.218750X0*%
%ADD28C,3.000000*%
%ADD29RoundRect,0.200000X0.275000X-0.200000X0.275000X0.200000X-0.275000X0.200000X-0.275000X-0.200000X0*%
%ADD30RoundRect,0.200000X-0.200000X-0.800000X0.200000X-0.800000X0.200000X0.800000X-0.200000X0.800000X0*%
%ADD31RoundRect,0.218750X-0.218750X-0.256250X0.218750X-0.256250X0.218750X0.256250X-0.218750X0.256250X0*%
%ADD32O,3.220000X1.712000*%
%ADD33RoundRect,0.250000X1.000000X0.650000X-1.000000X0.650000X-1.000000X-0.650000X1.000000X-0.650000X0*%
%ADD34RoundRect,0.250000X-0.475000X0.250000X-0.475000X-0.250000X0.475000X-0.250000X0.475000X0.250000X0*%
%ADD35RoundRect,0.218750X0.218750X0.256250X-0.218750X0.256250X-0.218750X-0.256250X0.218750X-0.256250X0*%
%ADD36C,3.600000*%
%ADD37C,5.600000*%
%ADD38RoundRect,0.200000X-0.450000X0.200000X-0.450000X-0.200000X0.450000X-0.200000X0.450000X0.200000X0*%
%ADD39RoundRect,0.250001X-1.249999X0.799999X-1.249999X-0.799999X1.249999X-0.799999X1.249999X0.799999X0*%
%ADD40R,3.500000X3.500000*%
%ADD41RoundRect,0.750000X-1.000000X0.750000X-1.000000X-0.750000X1.000000X-0.750000X1.000000X0.750000X0*%
%ADD42RoundRect,0.875000X-0.875000X0.875000X-0.875000X-0.875000X0.875000X-0.875000X0.875000X0.875000X0*%
%ADD43RoundRect,0.100000X-0.100000X0.637500X-0.100000X-0.637500X0.100000X-0.637500X0.100000X0.637500X0*%
%ADD44RoundRect,0.150000X-0.825000X-0.150000X0.825000X-0.150000X0.825000X0.150000X-0.825000X0.150000X0*%
%ADD45RoundRect,0.162500X0.162500X-0.650000X0.162500X0.650000X-0.162500X0.650000X-0.162500X-0.650000X0*%
%ADD46RoundRect,0.100500X0.986500X0.301500X-0.986500X0.301500X-0.986500X-0.301500X0.986500X-0.301500X0*%
%ADD47RoundRect,0.225000X0.225000X0.375000X-0.225000X0.375000X-0.225000X-0.375000X0.225000X-0.375000X0*%
%ADD48RoundRect,0.249999X-0.750001X-0.640001X0.750001X-0.640001X0.750001X0.640001X-0.750001X0.640001X0*%
%ADD49RoundRect,0.150000X-0.587500X-0.150000X0.587500X-0.150000X0.587500X0.150000X-0.587500X0.150000X0*%
%ADD50R,0.606400X0.279400*%
%ADD51C,0.850000*%
%ADD52RoundRect,0.150000X0.150000X0.500000X-0.150000X0.500000X-0.150000X-0.500000X0.150000X-0.500000X0*%
%ADD53RoundRect,0.175000X0.350000X0.175000X-0.350000X0.175000X-0.350000X-0.175000X0.350000X-0.175000X0*%
%ADD54RoundRect,0.250000X-1.000000X-0.650000X1.000000X-0.650000X1.000000X0.650000X-1.000000X0.650000X0*%
%ADD55R,3.500000X2.950000*%
%ADD56RoundRect,0.075000X0.675000X0.075000X-0.675000X0.075000X-0.675000X-0.075000X0.675000X-0.075000X0*%
%ADD57RoundRect,0.075000X0.075000X0.675000X-0.075000X0.675000X-0.075000X-0.675000X0.075000X-0.675000X0*%
%ADD58RoundRect,0.250000X-0.350000X0.450000X-0.350000X-0.450000X0.350000X-0.450000X0.350000X0.450000X0*%
%ADD59C,0.700000*%
%ADD60O,0.900000X2.400000*%
%ADD61O,0.900000X1.700000*%
%ADD62RoundRect,0.150000X-0.512500X-0.150000X0.512500X-0.150000X0.512500X0.150000X-0.512500X0.150000X0*%
%ADD63RoundRect,0.225000X-0.375000X0.225000X-0.375000X-0.225000X0.375000X-0.225000X0.375000X0.225000X0*%
%ADD64RoundRect,0.188500X0.633500X0.188500X-0.633500X0.188500X-0.633500X-0.188500X0.633500X-0.188500X0*%
%ADD65C,0.999997*%
%ADD66RoundRect,0.102000X-0.650000X0.350000X-0.650000X-0.350000X0.650000X-0.350000X0.650000X0.350000X0*%
%ADD67RoundRect,0.102000X-0.825500X0.723900X-0.825500X-0.723900X0.825500X-0.723900X0.825500X0.723900X0*%
%ADD68RoundRect,0.102000X-1.219200X0.723900X-1.219200X-0.723900X1.219200X-0.723900X1.219200X0.723900X0*%
%ADD69RoundRect,0.102000X-0.825500X0.927100X-0.825500X-0.927100X0.825500X-0.927100X0.825500X0.927100X0*%
%ADD70R,0.900000X1.500000*%
%ADD71C,0.600000*%
%ADD72R,2.900000X2.900000*%
G04 APERTURE END LIST*
D10*
%TO.C,FB5*%
X182559712Y-158319218D03*
X182559712Y-156744218D03*
%TD*%
D11*
%TO.C,C93*%
X184359712Y-156731718D03*
X185909712Y-156731718D03*
%TD*%
%TO.C,C91*%
X184384712Y-158531718D03*
X185934712Y-158531718D03*
%TD*%
%TO.C,C90*%
X183534712Y-162531718D03*
X181984712Y-162531718D03*
%TD*%
D12*
%TO.C,R55*%
X183609712Y-160731718D03*
X181959712Y-160731718D03*
%TD*%
D13*
%TO.C,I/O_3*%
X176559712Y-162681718D03*
X176559712Y-161431718D03*
X176559712Y-160181718D03*
D14*
X179309712Y-165231718D03*
X179309712Y-157631718D03*
%TD*%
%TO.C,I/O_1*%
X173109712Y-157631718D03*
X173109712Y-165231718D03*
D13*
X170359712Y-160181718D03*
X170359712Y-161431718D03*
X170359712Y-162681718D03*
%TD*%
D15*
%TO.C,TP58*%
X185759712Y-154931718D03*
%TD*%
D16*
%TO.C,R24*%
X252434712Y-106031718D03*
X254084712Y-106031718D03*
%TD*%
D17*
%TO.C,U12*%
X220334712Y-99581718D03*
D18*
X220334712Y-99081718D03*
X220334712Y-98581718D03*
D17*
X220334712Y-98081718D03*
D19*
X219659712Y-97931718D03*
D17*
X218984712Y-98081718D03*
D18*
X218984712Y-98581718D03*
X218984712Y-99081718D03*
D17*
X218984712Y-99581718D03*
D19*
X219659712Y-99731718D03*
%TD*%
D20*
%TO.C,R3*%
X226534712Y-179706718D03*
X226534712Y-181356718D03*
%TD*%
D21*
%TO.C,C24*%
X216631725Y-165931718D03*
X215081725Y-165931718D03*
%TD*%
D22*
%TO.C,U9*%
X215997212Y-99781718D03*
X215997212Y-98831718D03*
X215997212Y-97881718D03*
X213722212Y-97881718D03*
X213722212Y-98831718D03*
X213722212Y-99781718D03*
%TD*%
D16*
%TO.C,R25*%
X254097212Y-107931718D03*
X252447212Y-107931718D03*
%TD*%
D23*
%TO.C,C45*%
X225719225Y-145456718D03*
X225719225Y-147006718D03*
%TD*%
D11*
%TO.C,C15*%
X211906725Y-186431718D03*
X213456725Y-186431718D03*
%TD*%
D20*
%TO.C,R28*%
X238959712Y-99106718D03*
X238959712Y-100756718D03*
%TD*%
D15*
%TO.C,TP50*%
X233159712Y-170331718D03*
%TD*%
D21*
%TO.C,C30*%
X201344225Y-120296916D03*
X199794225Y-120296916D03*
%TD*%
D24*
%TO.C,RST1*%
X245731725Y-96134218D03*
X252741725Y-96134218D03*
D25*
X246981725Y-93644218D03*
X251481725Y-93644218D03*
%TD*%
D26*
%TO.C,C1*%
X183459712Y-95706718D03*
X183459712Y-94156718D03*
%TD*%
D15*
%TO.C,TP57*%
X182759712Y-175131718D03*
%TD*%
D27*
%TO.C,D4*%
X243256725Y-95231718D03*
X243256725Y-96806718D03*
%TD*%
D12*
%TO.C,R10*%
X218431725Y-180931718D03*
X220081725Y-180931718D03*
%TD*%
D21*
%TO.C,C39*%
X207594225Y-145731718D03*
X206044225Y-145731718D03*
%TD*%
D16*
%TO.C,R42*%
X254084712Y-109931718D03*
X252434712Y-109931718D03*
%TD*%
D28*
%TO.C,J4*%
X204021725Y-180346718D03*
X187791725Y-180346718D03*
X204021725Y-186696718D03*
X187791725Y-186696718D03*
X204021725Y-173996718D03*
X187791725Y-173996718D03*
%TD*%
D21*
%TO.C,C72*%
X250647212Y-104131718D03*
X249097212Y-104131718D03*
%TD*%
D29*
%TO.C,R18*%
X214656725Y-154456718D03*
X214656725Y-152806718D03*
%TD*%
D16*
%TO.C,R9*%
X220081725Y-182754218D03*
X218431725Y-182754218D03*
%TD*%
D30*
%TO.C,SW1*%
X240659712Y-150531718D03*
X244859712Y-150531718D03*
%TD*%
D20*
%TO.C,R31*%
X235259712Y-102606718D03*
X235259712Y-104256718D03*
%TD*%
D31*
%TO.C,FB1*%
X181872212Y-97531718D03*
X183447212Y-97531718D03*
%TD*%
D21*
%TO.C,C43*%
X201344225Y-136796916D03*
X199794225Y-136796916D03*
%TD*%
D16*
%TO.C,R23*%
X181084712Y-139731718D03*
X179434712Y-139731718D03*
%TD*%
D11*
%TO.C,C57*%
X199744225Y-130331718D03*
X201294225Y-130331718D03*
%TD*%
D15*
%TO.C,TP49*%
X235359712Y-171034705D03*
%TD*%
D12*
%TO.C,R53*%
X215434712Y-101331718D03*
X217084712Y-101331718D03*
%TD*%
D32*
%TO.C,J10*%
X168159712Y-189631718D03*
X166159712Y-187231718D03*
X166159712Y-181711718D03*
X168159712Y-177631718D03*
X168159712Y-183531718D03*
%TD*%
D33*
%TO.C,D1*%
X190059712Y-94431718D03*
X186059712Y-94431718D03*
%TD*%
D15*
%TO.C,TP29*%
X228806725Y-154131718D03*
%TD*%
D34*
%TO.C,C18*%
X183862699Y-101881718D03*
X183862699Y-103781718D03*
%TD*%
D23*
%TO.C,C83*%
X175406725Y-119931718D03*
X175406725Y-121481718D03*
%TD*%
D29*
%TO.C,R29*%
X242359712Y-100756718D03*
X242359712Y-99106718D03*
%TD*%
D23*
%TO.C,C38*%
X214259712Y-145556718D03*
X214259712Y-147106718D03*
%TD*%
D21*
%TO.C,C16*%
X216790725Y-186443198D03*
X215240725Y-186443198D03*
%TD*%
%TO.C,C13*%
X194806725Y-158581718D03*
X193256725Y-158581718D03*
%TD*%
D12*
%TO.C,R33*%
X213831725Y-173641718D03*
X215481725Y-173641718D03*
%TD*%
D23*
%TO.C,C46*%
X245256725Y-99156718D03*
X245256725Y-100706718D03*
%TD*%
D34*
%TO.C,C78*%
X183159712Y-110131718D03*
X183159712Y-112031718D03*
%TD*%
D35*
%TO.C,D7*%
X253559712Y-120931718D03*
X251984712Y-120931718D03*
%TD*%
D11*
%TO.C,C48*%
X200081725Y-162531718D03*
X201631725Y-162531718D03*
%TD*%
D15*
%TO.C,TP46*%
X214459712Y-171831718D03*
%TD*%
D23*
%TO.C,C87*%
X246659712Y-149556718D03*
X246659712Y-151106718D03*
%TD*%
D11*
%TO.C,C82*%
X194209712Y-97231718D03*
X195759712Y-97231718D03*
%TD*%
D36*
%TO.C,H3*%
X189159712Y-163431718D03*
D37*
X189159712Y-163431718D03*
%TD*%
D15*
%TO.C,TP52*%
X163559712Y-174131718D03*
%TD*%
D26*
%TO.C,C20*%
X216456725Y-154406718D03*
X216456725Y-152856718D03*
%TD*%
D15*
%TO.C,TP26*%
X227056725Y-158531718D03*
%TD*%
D21*
%TO.C,C10*%
X234334712Y-185631718D03*
X232784712Y-185631718D03*
%TD*%
D38*
%TO.C,SWD1*%
X227909712Y-95756718D03*
X227909712Y-97006718D03*
X227909712Y-98256718D03*
X227909712Y-99506718D03*
D39*
X225159712Y-93206718D03*
X225159712Y-102056718D03*
%TD*%
D40*
%TO.C,J1*%
X175659712Y-104931718D03*
D41*
X175659712Y-98931718D03*
D42*
X170959712Y-101931718D03*
%TD*%
D21*
%TO.C,C70*%
X250634712Y-111831718D03*
X249084712Y-111831718D03*
%TD*%
D11*
%TO.C,C86*%
X244759712Y-147431718D03*
X246309712Y-147431718D03*
%TD*%
D21*
%TO.C,C74*%
X250659712Y-107931718D03*
X249109712Y-107931718D03*
%TD*%
D11*
%TO.C,C54*%
X199744225Y-133731718D03*
X201294225Y-133731718D03*
%TD*%
D23*
%TO.C,C58*%
X183656725Y-136556718D03*
X183656725Y-138106718D03*
%TD*%
D34*
%TO.C,C79*%
X180659712Y-110131718D03*
X180659712Y-112031718D03*
%TD*%
D26*
%TO.C,C27*%
X219719225Y-114921916D03*
X219719225Y-113371916D03*
%TD*%
D12*
%TO.C,R14*%
X215190725Y-188093198D03*
X216840725Y-188093198D03*
%TD*%
%TO.C,R39*%
X179434712Y-146931718D03*
X181084712Y-146931718D03*
%TD*%
D21*
%TO.C,C61*%
X199459712Y-104931718D03*
X197909712Y-104931718D03*
%TD*%
D15*
%TO.C,TP28*%
X229506725Y-148631718D03*
%TD*%
D21*
%TO.C,C62*%
X199434712Y-103181718D03*
X197884712Y-103181718D03*
%TD*%
D38*
%TO.C,I2C1*%
X260509712Y-153481718D03*
X260509712Y-154731718D03*
X260509712Y-155981718D03*
X260509712Y-157231718D03*
D39*
X257759712Y-150931718D03*
X257759712Y-159781718D03*
%TD*%
D43*
%TO.C,U4*%
X220656725Y-156931718D03*
X220006725Y-156931718D03*
X219356725Y-156931718D03*
X218706725Y-156931718D03*
X218056725Y-156931718D03*
X217406725Y-156931718D03*
X216756725Y-156931718D03*
X216106725Y-156931718D03*
X215456725Y-156931718D03*
X214806725Y-156931718D03*
X214156725Y-156931718D03*
X213506725Y-156931718D03*
X212856725Y-156931718D03*
X212206725Y-156931718D03*
X212206725Y-162656718D03*
X212856725Y-162656718D03*
X213506725Y-162656718D03*
X214156725Y-162656718D03*
X214806725Y-162656718D03*
X215456725Y-162656718D03*
X216106725Y-162656718D03*
X216756725Y-162656718D03*
X217406725Y-162656718D03*
X218056725Y-162656718D03*
X218706725Y-162656718D03*
X219356725Y-162656718D03*
X220006725Y-162656718D03*
X220656725Y-162656718D03*
%TD*%
D15*
%TO.C,TP27*%
X229556725Y-151881718D03*
%TD*%
%TO.C,TP32*%
X184956725Y-142731718D03*
%TD*%
D16*
%TO.C,R26*%
X254097212Y-102244218D03*
X252447212Y-102244218D03*
%TD*%
%TO.C,R4*%
X237684712Y-183931718D03*
X236034712Y-183931718D03*
%TD*%
D26*
%TO.C,C28*%
X226069225Y-114921916D03*
X226069225Y-113371916D03*
%TD*%
D15*
%TO.C,TP17*%
X232256725Y-110731718D03*
%TD*%
D30*
%TO.C,SW2*%
X248559712Y-150531718D03*
X252759712Y-150531718D03*
%TD*%
D21*
%TO.C,C66*%
X250647212Y-113694218D03*
X249097212Y-113694218D03*
%TD*%
D15*
%TO.C,TP38*%
X197559712Y-97531718D03*
%TD*%
D44*
%TO.C,U2*%
X231659712Y-173921718D03*
X231659712Y-175191718D03*
X231659712Y-176461718D03*
X231659712Y-177731718D03*
X231659712Y-179001718D03*
X231659712Y-180271718D03*
X231659712Y-181541718D03*
X236609712Y-181541718D03*
X236609712Y-180271718D03*
X236609712Y-179001718D03*
X236609712Y-177731718D03*
X236609712Y-176461718D03*
X236609712Y-175191718D03*
X236609712Y-173921718D03*
%TD*%
D12*
%TO.C,R41*%
X218431725Y-175231718D03*
X220081725Y-175231718D03*
%TD*%
D24*
%TO.C,BOOT1*%
X232131725Y-96134218D03*
X239141725Y-96134218D03*
D25*
X233381725Y-93644218D03*
X237881725Y-93644218D03*
%TD*%
D11*
%TO.C,C68*%
X213881725Y-175241718D03*
X215431725Y-175241718D03*
%TD*%
D20*
%TO.C,R34*%
X237409712Y-120481718D03*
X237409712Y-122131718D03*
%TD*%
D11*
%TO.C,C5*%
X200131725Y-157331718D03*
X201681725Y-157331718D03*
%TD*%
%TO.C,C11*%
X210656725Y-175249218D03*
X212206725Y-175249218D03*
%TD*%
D21*
%TO.C,C65*%
X181034712Y-141531718D03*
X179484712Y-141531718D03*
%TD*%
D29*
%TO.C,R35*%
X173256725Y-110981718D03*
X173256725Y-109331718D03*
%TD*%
D15*
%TO.C,TP33*%
X188856725Y-143531718D03*
%TD*%
D34*
%TO.C,C80*%
X186062699Y-101881718D03*
X186062699Y-103781718D03*
%TD*%
D15*
%TO.C,TP53*%
X165959712Y-174131718D03*
%TD*%
D16*
%TO.C,R43*%
X254084712Y-111831718D03*
X252434712Y-111831718D03*
%TD*%
D11*
%TO.C,C71*%
X190487699Y-105131718D03*
X192037699Y-105131718D03*
%TD*%
D15*
%TO.C,TP66*%
X171159712Y-126731718D03*
%TD*%
D10*
%TO.C,FB3*%
X201159712Y-104719218D03*
X201159712Y-103144218D03*
%TD*%
D26*
%TO.C,C25*%
X234109712Y-122081718D03*
X234109712Y-120531718D03*
%TD*%
D15*
%TO.C,TP22*%
X244359180Y-106241325D03*
%TD*%
D16*
%TO.C,R21*%
X254097212Y-104131718D03*
X252447212Y-104131718D03*
%TD*%
D36*
%TO.C,H5*%
X235159712Y-163431718D03*
D37*
X235159712Y-163431718D03*
%TD*%
D12*
%TO.C,R22*%
X179434712Y-143331718D03*
X181084712Y-143331718D03*
%TD*%
D15*
%TO.C,TP65*%
X172959712Y-128531718D03*
%TD*%
D27*
%TO.C,D3*%
X233459712Y-102631718D03*
X233459712Y-104206718D03*
%TD*%
D45*
%TO.C,U7*%
X177501725Y-127269218D03*
X178771725Y-127269218D03*
X180041725Y-127269218D03*
X181311725Y-127269218D03*
X181311725Y-120094218D03*
X180041725Y-120094218D03*
X178771725Y-120094218D03*
X177501725Y-120094218D03*
%TD*%
D38*
%TO.C,ENC1*%
X168409712Y-125500000D03*
X168409712Y-126750000D03*
X168409712Y-128000000D03*
X168409712Y-129250000D03*
X168409712Y-130500000D03*
D39*
X165659712Y-122950000D03*
X165659712Y-133050000D03*
%TD*%
D15*
%TO.C,TP24*%
X229359712Y-101831718D03*
%TD*%
D11*
%TO.C,C40*%
X232381725Y-130931718D03*
X233931725Y-130931718D03*
%TD*%
D38*
%TO.C,J3*%
X260509712Y-131231718D03*
X260509712Y-132481718D03*
X260509712Y-133731718D03*
X260509712Y-134981718D03*
X260509712Y-136231718D03*
X260509712Y-137481718D03*
X260509712Y-138731718D03*
X260509712Y-139981718D03*
X260509712Y-141231718D03*
X260509712Y-142481718D03*
X260509712Y-143731718D03*
X260509712Y-144981718D03*
D39*
X257759712Y-128681718D03*
X257759712Y-147531718D03*
%TD*%
D20*
%TO.C,R36*%
X205159712Y-103106718D03*
X205159712Y-104756718D03*
%TD*%
D38*
%TO.C,J2*%
X260509712Y-103081718D03*
X260509712Y-104331718D03*
X260509712Y-105581718D03*
X260509712Y-106831718D03*
X260509712Y-108081718D03*
X260509712Y-109331718D03*
X260509712Y-110581718D03*
X260509712Y-111831718D03*
D39*
X257759712Y-100531718D03*
X257759712Y-114381718D03*
%TD*%
D21*
%TO.C,C36*%
X201294225Y-126231718D03*
X199744225Y-126231718D03*
%TD*%
D16*
%TO.C,R20*%
X253584712Y-118931718D03*
X251934712Y-118931718D03*
%TD*%
D11*
%TO.C,C84*%
X241584712Y-147431718D03*
X243134712Y-147431718D03*
%TD*%
D15*
%TO.C,TP30*%
X187756725Y-147431718D03*
%TD*%
D23*
%TO.C,C4*%
X190581725Y-154981718D03*
X190581725Y-156531718D03*
%TD*%
%TO.C,C63*%
X235559712Y-99156718D03*
X235559712Y-100706718D03*
%TD*%
D46*
%TO.C,U3*%
X216056725Y-182701718D03*
X216056725Y-181431718D03*
X216056725Y-180161718D03*
X216056725Y-178891718D03*
X211116725Y-178891718D03*
X211116725Y-180161718D03*
X211116725Y-181431718D03*
X211116725Y-182701718D03*
%TD*%
D15*
%TO.C,TP45*%
X213059712Y-168831718D03*
%TD*%
D28*
%TO.C,TP51*%
X165159712Y-106931718D03*
%TD*%
D21*
%TO.C,C88*%
X250334712Y-147531718D03*
X248784712Y-147531718D03*
%TD*%
D26*
%TO.C,C26*%
X235759712Y-118731718D03*
X235759712Y-117181718D03*
%TD*%
D23*
%TO.C,C3*%
X197181725Y-154981718D03*
X197181725Y-156531718D03*
%TD*%
D47*
%TO.C,D2*%
X233709712Y-99531718D03*
X230409712Y-99531718D03*
%TD*%
D11*
%TO.C,C85*%
X241584712Y-145531718D03*
X243134712Y-145531718D03*
%TD*%
D23*
%TO.C,C32*%
X219169225Y-145556718D03*
X219169225Y-147106718D03*
%TD*%
D15*
%TO.C,TP60*%
X244059712Y-122431718D03*
%TD*%
D20*
%TO.C,R37*%
X203359712Y-103106718D03*
X203359712Y-104756718D03*
%TD*%
D12*
%TO.C,R13*%
X211881725Y-188081718D03*
X213531725Y-188081718D03*
%TD*%
D11*
%TO.C,C17*%
X194209712Y-100731718D03*
X195759712Y-100731718D03*
%TD*%
D23*
%TO.C,C76*%
X207056725Y-182731718D03*
X207056725Y-184281718D03*
%TD*%
D11*
%TO.C,C21*%
X218306725Y-167731718D03*
X219856725Y-167731718D03*
%TD*%
D12*
%TO.C,R40*%
X179434712Y-145131718D03*
X181084712Y-145131718D03*
%TD*%
D23*
%TO.C,C55*%
X183656725Y-131556718D03*
X183656725Y-133106718D03*
%TD*%
%TO.C,C77*%
X208756725Y-182731718D03*
X208756725Y-184281718D03*
%TD*%
D21*
%TO.C,C29*%
X201294225Y-132131718D03*
X199744225Y-132131718D03*
%TD*%
D48*
%TO.C,U11*%
X168629712Y-169291718D03*
X168629712Y-171831718D03*
X168629712Y-174371718D03*
X178159712Y-174371718D03*
X178159712Y-171831718D03*
X178159712Y-169291718D03*
%TD*%
D15*
%TO.C,TP1*%
X207259712Y-187631718D03*
%TD*%
D26*
%TO.C,C2*%
X181859712Y-95706718D03*
X181859712Y-94156718D03*
%TD*%
D29*
%TO.C,R16*%
X220056725Y-154516520D03*
X220056725Y-152866520D03*
%TD*%
D27*
%TO.C,FB2*%
X200156725Y-159144218D03*
X200156725Y-160719218D03*
%TD*%
D21*
%TO.C,C51*%
X250659712Y-109931718D03*
X249109712Y-109931718D03*
%TD*%
D16*
%TO.C,R19*%
X253584712Y-117131718D03*
X251934712Y-117131718D03*
%TD*%
D28*
%TO.C,J8*%
X259389712Y-180331718D03*
X243159712Y-180331718D03*
X259389712Y-186681718D03*
X243159712Y-186681718D03*
X259389712Y-173981718D03*
X243159712Y-173981718D03*
%TD*%
D15*
%TO.C,TP35*%
X194256725Y-148931718D03*
%TD*%
D49*
%TO.C,Q1*%
X241381725Y-102531718D03*
X241381725Y-104431718D03*
X243256725Y-103481718D03*
%TD*%
D50*
%TO.C,U5*%
X189664312Y-101931716D03*
X189664312Y-102431717D03*
X189664312Y-102931717D03*
X189664312Y-103431718D03*
X191159712Y-103431718D03*
X191159712Y-102931717D03*
X191159712Y-102431717D03*
X191159712Y-101931716D03*
%TD*%
D15*
%TO.C,TP48*%
X238959712Y-189131718D03*
%TD*%
D51*
%TO.C,SW3*%
X219934712Y-92531718D03*
X216934712Y-92531718D03*
D52*
X220684712Y-94481718D03*
X217684712Y-94481718D03*
X216184712Y-94481718D03*
D53*
X222109712Y-93631718D03*
X222109712Y-91431718D03*
X214759712Y-93631718D03*
X214759712Y-91431718D03*
%TD*%
D11*
%TO.C,C37*%
X232384712Y-136231718D03*
X233934712Y-136231718D03*
%TD*%
D29*
%TO.C,R49*%
X180959712Y-173256718D03*
X180959712Y-171606718D03*
%TD*%
D54*
%TO.C,D6*%
X193459712Y-94431718D03*
X197459712Y-94431718D03*
%TD*%
D16*
%TO.C,R15*%
X224481725Y-162931718D03*
X222831725Y-162931718D03*
%TD*%
D29*
%TO.C,Rb1*%
X190159712Y-99856718D03*
X190159712Y-98206718D03*
%TD*%
D21*
%TO.C,C89*%
X220659712Y-101331718D03*
X219109712Y-101331718D03*
%TD*%
D15*
%TO.C,TP2*%
X232256725Y-113131718D03*
%TD*%
%TO.C,TP62*%
X235459712Y-141731718D03*
%TD*%
D16*
%TO.C,R51*%
X246409712Y-145531718D03*
X244759712Y-145531718D03*
%TD*%
D12*
%TO.C,R7*%
X210606725Y-173649218D03*
X212256725Y-173649218D03*
%TD*%
D26*
%TO.C,C49*%
X235759712Y-122081718D03*
X235759712Y-120531718D03*
%TD*%
%TO.C,C44*%
X209256725Y-114921916D03*
X209256725Y-113371916D03*
%TD*%
%TO.C,C14*%
X203656725Y-164106718D03*
X203656725Y-162556718D03*
%TD*%
D15*
%TO.C,TP18*%
X234856725Y-109931718D03*
%TD*%
D11*
%TO.C,C31*%
X232581725Y-123781718D03*
X234131725Y-123781718D03*
%TD*%
D27*
%TO.C,FB4*%
X252547212Y-113694218D03*
X252547212Y-115269218D03*
%TD*%
D11*
%TO.C,C56*%
X199769225Y-118531718D03*
X201319225Y-118531718D03*
%TD*%
D15*
%TO.C,TP25*%
X227856725Y-156331718D03*
%TD*%
D21*
%TO.C,C73*%
X250690962Y-106031718D03*
X249140962Y-106031718D03*
%TD*%
D11*
%TO.C,C41*%
X232381725Y-133331718D03*
X233931725Y-133331718D03*
%TD*%
D27*
%TO.C,L1*%
X237409712Y-117181718D03*
X237409712Y-118756718D03*
%TD*%
D15*
%TO.C,TP34*%
X190956725Y-148181718D03*
%TD*%
%TO.C,TP23*%
X218959712Y-109831718D03*
%TD*%
D23*
%TO.C,C92*%
X180959712Y-168156718D03*
X180959712Y-169706718D03*
%TD*%
D15*
%TO.C,TP47*%
X239459712Y-187031718D03*
%TD*%
%TO.C,TP3*%
X229256725Y-114331718D03*
%TD*%
D16*
%TO.C,R11*%
X213481725Y-184831718D03*
X211831725Y-184831718D03*
%TD*%
%TO.C,R44*%
X195784712Y-105131718D03*
X194134712Y-105131718D03*
%TD*%
D23*
%TO.C,C52*%
X171456725Y-109331718D03*
X171456725Y-110881718D03*
%TD*%
D29*
%TO.C,R17*%
X221856725Y-154541520D03*
X221856725Y-152891520D03*
%TD*%
D20*
%TO.C,R27*%
X247056725Y-99106718D03*
X247056725Y-100756718D03*
%TD*%
D15*
%TO.C,TP37*%
X185159712Y-99331718D03*
%TD*%
D16*
%TO.C,R38*%
X181084712Y-137931718D03*
X179434712Y-137931718D03*
%TD*%
D11*
%TO.C,C60*%
X199794225Y-142046916D03*
X201344225Y-142046916D03*
%TD*%
D21*
%TO.C,C9*%
X237609712Y-185631718D03*
X236059712Y-185631718D03*
%TD*%
D26*
%TO.C,C34*%
X207556725Y-114921916D03*
X207556725Y-113371916D03*
%TD*%
D29*
%TO.C,R6*%
X228334712Y-181356718D03*
X228334712Y-179706718D03*
%TD*%
D55*
%TO.C,L2*%
X187909712Y-108206718D03*
X187909712Y-113656718D03*
%TD*%
D36*
%TO.C,H2*%
X257659712Y-95431718D03*
D37*
X257659712Y-95431718D03*
%TD*%
D20*
%TO.C,R32*%
X241456725Y-95131718D03*
X241456725Y-96781718D03*
%TD*%
D23*
%TO.C,C53*%
X169656725Y-109331718D03*
X169656725Y-110881718D03*
%TD*%
D21*
%TO.C,C35*%
X201344225Y-138546916D03*
X199794225Y-138546916D03*
%TD*%
D12*
%TO.C,R5*%
X232734712Y-183931718D03*
X234384712Y-183931718D03*
%TD*%
D56*
%TO.C,U1*%
X229597500Y-140680198D03*
X229597500Y-140180198D03*
X229597500Y-139680198D03*
X229597500Y-139180198D03*
X229597500Y-138680198D03*
X229597500Y-138180198D03*
X229597500Y-137680198D03*
X229597500Y-137180198D03*
X229597500Y-136680198D03*
X229597500Y-136180198D03*
X229597500Y-135680198D03*
X229597500Y-135180198D03*
X229597500Y-134680198D03*
X229597500Y-134180198D03*
X229597500Y-133680198D03*
X229597500Y-133180198D03*
X229597500Y-132680198D03*
X229597500Y-132180198D03*
X229597500Y-131680198D03*
X229597500Y-131180198D03*
X229597500Y-130680198D03*
X229597500Y-130180198D03*
X229597500Y-129680198D03*
X229597500Y-129180198D03*
X229597500Y-128680198D03*
X229597500Y-128180198D03*
X229597500Y-127680198D03*
X229597500Y-127180198D03*
X229597500Y-126680198D03*
X229597500Y-126180198D03*
X229597500Y-125680198D03*
X229597500Y-125180198D03*
X229597500Y-124680198D03*
X229597500Y-124180198D03*
X229597500Y-123680198D03*
X229597500Y-123180198D03*
X229597500Y-122680198D03*
X229597500Y-122180198D03*
X229597500Y-121680198D03*
X229597500Y-121180198D03*
X229597500Y-120680198D03*
X229597500Y-120180198D03*
X229597500Y-119680198D03*
X229597500Y-119180198D03*
D57*
X227672500Y-117255198D03*
X227172500Y-117255198D03*
X226672500Y-117255198D03*
X226172500Y-117255198D03*
X225672500Y-117255198D03*
X225172500Y-117255198D03*
X224672500Y-117255198D03*
X224172500Y-117255198D03*
X223672500Y-117255198D03*
X223172500Y-117255198D03*
X222672500Y-117255198D03*
X222172500Y-117255198D03*
X221672500Y-117255198D03*
X221172500Y-117255198D03*
X220672500Y-117255198D03*
X220172500Y-117255198D03*
X219672500Y-117255198D03*
X219172500Y-117255198D03*
X218672500Y-117255198D03*
X218172500Y-117255198D03*
X217672500Y-117255198D03*
X217172500Y-117255198D03*
X216672500Y-117255198D03*
X216172500Y-117255198D03*
X215672500Y-117255198D03*
X215172500Y-117255198D03*
X214672500Y-117255198D03*
X214172500Y-117255198D03*
X213672500Y-117255198D03*
X213172500Y-117255198D03*
X212672500Y-117255198D03*
X212172500Y-117255198D03*
X211672500Y-117255198D03*
X211172500Y-117255198D03*
X210672500Y-117255198D03*
X210172500Y-117255198D03*
X209672500Y-117255198D03*
X209172500Y-117255198D03*
X208672500Y-117255198D03*
X208172500Y-117255198D03*
X207672500Y-117255198D03*
X207172500Y-117255198D03*
X206672500Y-117255198D03*
X206172500Y-117255198D03*
D56*
X204247500Y-119180198D03*
X204247500Y-119680198D03*
X204247500Y-120180198D03*
X204247500Y-120680198D03*
X204247500Y-121180198D03*
X204247500Y-121680198D03*
X204247500Y-122180198D03*
X204247500Y-122680198D03*
X204247500Y-123180198D03*
X204247500Y-123680198D03*
X204247500Y-124180198D03*
X204247500Y-124680198D03*
X204247500Y-125180198D03*
X204247500Y-125680198D03*
X204247500Y-126180198D03*
X204247500Y-126680198D03*
X204247500Y-127180198D03*
X204247500Y-127680198D03*
X204247500Y-128180198D03*
X204247500Y-128680198D03*
X204247500Y-129180198D03*
X204247500Y-129680198D03*
X204247500Y-130180198D03*
X204247500Y-130680198D03*
X204247500Y-131180198D03*
X204247500Y-131680198D03*
X204247500Y-132180198D03*
X204247500Y-132680198D03*
X204247500Y-133180198D03*
X204247500Y-133680198D03*
X204247500Y-134180198D03*
X204247500Y-134680198D03*
X204247500Y-135180198D03*
X204247500Y-135680198D03*
X204247500Y-136180198D03*
X204247500Y-136680198D03*
X204247500Y-137180198D03*
X204247500Y-137680198D03*
X204247500Y-138180198D03*
X204247500Y-138680198D03*
X204247500Y-139180198D03*
X204247500Y-139680198D03*
X204247500Y-140180198D03*
X204247500Y-140680198D03*
D57*
X206172500Y-142605198D03*
X206672500Y-142605198D03*
X207172500Y-142605198D03*
X207672500Y-142605198D03*
X208172500Y-142605198D03*
X208672500Y-142605198D03*
X209172500Y-142605198D03*
X209672500Y-142605198D03*
X210172500Y-142605198D03*
X210672500Y-142605198D03*
X211172500Y-142605198D03*
X211672500Y-142605198D03*
X212172500Y-142605198D03*
X212672500Y-142605198D03*
X213172500Y-142605198D03*
X213672500Y-142605198D03*
X214172500Y-142605198D03*
X214672500Y-142605198D03*
X215172500Y-142605198D03*
X215672500Y-142605198D03*
X216172500Y-142605198D03*
X216672500Y-142605198D03*
X217172500Y-142605198D03*
X217672500Y-142605198D03*
X218172500Y-142605198D03*
X218672500Y-142605198D03*
X219172500Y-142605198D03*
X219672500Y-142605198D03*
X220172500Y-142605198D03*
X220672500Y-142605198D03*
X221172500Y-142605198D03*
X221672500Y-142605198D03*
X222172500Y-142605198D03*
X222672500Y-142605198D03*
X223172500Y-142605198D03*
X223672500Y-142605198D03*
X224172500Y-142605198D03*
X224672500Y-142605198D03*
X225172500Y-142605198D03*
X225672500Y-142605198D03*
X226172500Y-142605198D03*
X226672500Y-142605198D03*
X227172500Y-142605198D03*
X227672500Y-142605198D03*
%TD*%
D11*
%TO.C,C59*%
X199794225Y-140296916D03*
X201344225Y-140296916D03*
%TD*%
D21*
%TO.C,C69*%
X220031725Y-177031718D03*
X218481725Y-177031718D03*
%TD*%
D16*
%TO.C,R45*%
X195759712Y-103331718D03*
X194109712Y-103331718D03*
%TD*%
D58*
%TO.C,Y1*%
X232606725Y-125881718D03*
X232606725Y-128081718D03*
X234306725Y-128081718D03*
X234306725Y-125881718D03*
%TD*%
D32*
%TO.C,J7*%
X180159712Y-189631718D03*
X178159712Y-187231718D03*
X178159712Y-181711718D03*
X180159712Y-177631718D03*
X180159712Y-183531718D03*
%TD*%
D11*
%TO.C,C22*%
X218306725Y-165931718D03*
X219856725Y-165931718D03*
%TD*%
D15*
%TO.C,TP19*%
X237256725Y-109131718D03*
%TD*%
D26*
%TO.C,C47*%
X240559712Y-100706718D03*
X240559712Y-99156718D03*
%TD*%
D15*
%TO.C,TP59*%
X241559712Y-122931718D03*
%TD*%
D23*
%TO.C,C64*%
X236459712Y-124706718D03*
X236459712Y-126256718D03*
%TD*%
D49*
%TO.C,Q2*%
X237284712Y-102481718D03*
X237284712Y-104381718D03*
X239159712Y-103431718D03*
%TD*%
D15*
%TO.C,TP36*%
X179656725Y-114331718D03*
%TD*%
%TO.C,TP21*%
X242056725Y-107531718D03*
%TD*%
D29*
%TO.C,R48*%
X183759712Y-169156718D03*
X183759712Y-167506718D03*
%TD*%
D23*
%TO.C,C81*%
X188062699Y-101956718D03*
X188062699Y-103506718D03*
%TD*%
%TO.C,C6*%
X234109712Y-117181718D03*
X234109712Y-118731718D03*
%TD*%
D15*
%TO.C,TP5*%
X249457725Y-154931718D03*
%TD*%
D26*
%TO.C,C50*%
X205656725Y-164106718D03*
X205656725Y-162556718D03*
%TD*%
D29*
%TO.C,Rg1*%
X188359712Y-99881718D03*
X188359712Y-98231718D03*
%TD*%
D26*
%TO.C,R47*%
X182659712Y-173181718D03*
X182659712Y-171631718D03*
%TD*%
D15*
%TO.C,TP12*%
X238459712Y-134681718D03*
%TD*%
D16*
%TO.C,Rtop1*%
X195759712Y-98931718D03*
X194109712Y-98931718D03*
%TD*%
D26*
%TO.C,C33*%
X214169225Y-114921916D03*
X214169225Y-113371916D03*
%TD*%
D20*
%TO.C,RT1*%
X191959712Y-98181718D03*
X191959712Y-99831718D03*
%TD*%
D29*
%TO.C,R46*%
X163559712Y-170156718D03*
X163559712Y-168506718D03*
%TD*%
D26*
%TO.C,C8*%
X228334712Y-177706718D03*
X228334712Y-176156718D03*
%TD*%
D59*
%TO.C,J5*%
X209259712Y-99791718D03*
X208409712Y-99791718D03*
X207559712Y-99791718D03*
X206709712Y-99791718D03*
X205859712Y-99791718D03*
X205009712Y-99791718D03*
X204159712Y-99791718D03*
X203309712Y-99791718D03*
X203309712Y-98441718D03*
X204159712Y-98441718D03*
X205009712Y-98441718D03*
X205859712Y-98441718D03*
X206709712Y-98441718D03*
X207559712Y-98441718D03*
X208409712Y-98441718D03*
X209259712Y-98441718D03*
D60*
X210609712Y-98811718D03*
D61*
X210609712Y-95431718D03*
D60*
X201959712Y-98811718D03*
D61*
X201959712Y-95431718D03*
%TD*%
D62*
%TO.C,U6*%
X192819225Y-154981718D03*
X192819225Y-155931718D03*
X192819225Y-156881718D03*
X195094225Y-156881718D03*
X195094225Y-154981718D03*
%TD*%
D15*
%TO.C,TP63*%
X229909712Y-183031718D03*
%TD*%
D13*
%TO.C,I/O_2*%
X164209712Y-162681718D03*
X164209712Y-161431718D03*
X164209712Y-160181718D03*
D14*
X166959712Y-165231718D03*
X166959712Y-157631718D03*
%TD*%
D12*
%TO.C,R12*%
X215190725Y-184843198D03*
X216840725Y-184843198D03*
%TD*%
D16*
%TO.C,R1*%
X237634712Y-187393198D03*
X235984712Y-187393198D03*
%TD*%
D29*
%TO.C,R30*%
X237359712Y-100756718D03*
X237359712Y-99106718D03*
%TD*%
D21*
%TO.C,C67*%
X250622212Y-115494218D03*
X249072212Y-115494218D03*
%TD*%
D12*
%TO.C,R52*%
X219134712Y-96431718D03*
X220784712Y-96431718D03*
%TD*%
D16*
%TO.C,R54*%
X253584712Y-122931718D03*
X251934712Y-122931718D03*
%TD*%
D15*
%TO.C,TP10*%
X235759712Y-135631718D03*
%TD*%
D21*
%TO.C,C23*%
X216631725Y-167731718D03*
X215081725Y-167731718D03*
%TD*%
D63*
%TO.C,D5*%
X165659712Y-168581718D03*
X165659712Y-171881718D03*
%TD*%
D15*
%TO.C,TP20*%
X239656725Y-108331718D03*
%TD*%
D26*
%TO.C,C19*%
X218256725Y-154406718D03*
X218256725Y-152856718D03*
%TD*%
D12*
%TO.C,R50*%
X248759712Y-145531718D03*
X250409712Y-145531718D03*
%TD*%
D21*
%TO.C,C75*%
X250647212Y-102244218D03*
X249097212Y-102244218D03*
%TD*%
D15*
%TO.C,TP31*%
X196659712Y-146431718D03*
%TD*%
D23*
%TO.C,C42*%
X236456725Y-128156718D03*
X236456725Y-129706718D03*
%TD*%
D36*
%TO.C,H1*%
X166659712Y-95431718D03*
D37*
X166659712Y-95431718D03*
%TD*%
D15*
%TO.C,TP56*%
X180659712Y-175131718D03*
%TD*%
D16*
%TO.C,R2*%
X234384712Y-187431718D03*
X232734712Y-187431718D03*
%TD*%
D64*
%TO.C,U8*%
X197159225Y-140496916D03*
X197159225Y-139696916D03*
X197159225Y-138896916D03*
X197159225Y-138096916D03*
X197159225Y-137296916D03*
X197159225Y-136496916D03*
X197159225Y-135696916D03*
X197159225Y-134896916D03*
X197159225Y-134096916D03*
X197159225Y-133296916D03*
X197159225Y-132496916D03*
X197159225Y-131696916D03*
X197159225Y-130896916D03*
X197159225Y-130096916D03*
X197159225Y-129296916D03*
X197159225Y-128496916D03*
X197159225Y-127696916D03*
X197159225Y-126896916D03*
X197159225Y-126096916D03*
X197159225Y-125296916D03*
X197159225Y-124496916D03*
X197159225Y-123696916D03*
X197159225Y-122896916D03*
X197159225Y-122096916D03*
X197159225Y-121296916D03*
X197159225Y-120496916D03*
X197159225Y-119696916D03*
X185919225Y-119696916D03*
X185919225Y-120496916D03*
X185919225Y-121296916D03*
X185919225Y-122096916D03*
X185919225Y-122896916D03*
X185919225Y-123696916D03*
X185919225Y-124496916D03*
X185919225Y-125296916D03*
X185919225Y-126096916D03*
X185919225Y-126896916D03*
X185919225Y-127696916D03*
X185919225Y-128496916D03*
X185919225Y-129296916D03*
X185919225Y-130096916D03*
X185919225Y-130896916D03*
X185919225Y-131696916D03*
X185919225Y-132496916D03*
X185919225Y-133296916D03*
X185919225Y-134096916D03*
X185919225Y-134896916D03*
X185919225Y-135696916D03*
X185919225Y-136496916D03*
X185919225Y-137296916D03*
X185919225Y-138096916D03*
X185919225Y-138896916D03*
X185919225Y-139696916D03*
X185919225Y-140496916D03*
%TD*%
D11*
%TO.C,C12*%
X218481725Y-178931718D03*
X220031725Y-178931718D03*
%TD*%
D26*
%TO.C,C7*%
X226584712Y-177706718D03*
X226584712Y-176156718D03*
%TD*%
D65*
%TO.C,MICRO_SD1*%
X166229112Y-139996200D03*
X166229112Y-147971800D03*
D66*
X176933512Y-147229800D03*
X176933512Y-146129800D03*
X176933512Y-145029800D03*
X176933512Y-143929800D03*
X176933512Y-142829800D03*
X176933512Y-141729800D03*
X176933512Y-140629800D03*
X176933512Y-139529800D03*
X176933512Y-138429800D03*
D67*
X176159712Y-137011400D03*
D68*
X166459712Y-137011400D03*
X166459712Y-152836200D03*
D69*
X176159712Y-152061200D03*
%TD*%
D70*
%TO.C,U10*%
X241559712Y-142941718D03*
X243059712Y-142941718D03*
X244559712Y-142941718D03*
X246059712Y-142941718D03*
X247559712Y-142941718D03*
X249059712Y-142941718D03*
X250559712Y-142941718D03*
X252059712Y-142941718D03*
X253559712Y-142941718D03*
X253559712Y-125441718D03*
X252059712Y-125441718D03*
X250559712Y-125441718D03*
X249059712Y-125441718D03*
X247559712Y-125441718D03*
X246059712Y-125441718D03*
X244559712Y-125441718D03*
X243059712Y-125441718D03*
X241559712Y-125441718D03*
D71*
X247209712Y-134331718D03*
X248309712Y-134331718D03*
X246659712Y-133781718D03*
X247759712Y-133781718D03*
X248859712Y-133781718D03*
X247209712Y-133231718D03*
D72*
X247759712Y-133231718D03*
D71*
X248309712Y-133231718D03*
X246659712Y-132681718D03*
X247759712Y-132681718D03*
X248859712Y-132681718D03*
X247209712Y-132131718D03*
X248309712Y-132131718D03*
%TD*%
D12*
%TO.C,R8*%
X210606725Y-176949218D03*
X212256725Y-176949218D03*
%TD*%
D15*
%TO.C,TP64*%
X173759712Y-131131718D03*
%TD*%
%TO.C,TP61*%
X237559712Y-143031718D03*
%TD*%
D38*
%TO.C,LEDS1*%
X260509712Y-120231718D03*
X260509712Y-121481718D03*
X260509712Y-122731718D03*
D39*
X257759712Y-117681718D03*
X257759712Y-125281718D03*
%TD*%
D15*
%TO.C,TP6*%
X246456725Y-155931718D03*
%TD*%
%TO.C,TP4*%
X209559712Y-189231718D03*
%TD*%
M02*
