M48
; DRILL file {KiCad 9.0.6} date 2026-01-08T15:16:41+0800
; FORMAT={-:-/ absolute / metric / decimal}
; #@! TF.CreationDate,2026-01-08T15:16:41+08:00
; #@! TF.GenerationSoftware,Kicad,Pcbnew,9.0.6
; #@! TF.FileFunction,MixedPlating,1,4
FMAT,2
METRIC
; #@! TA.AperFunction,Plated,PTH,ViaDrill
T1C0.200
; #@! TA.AperFunction,Plated,PTH,ComponentDrill
T2C0.200
; #@! TA.AperFunction,Plated,PTH,ViaDrill
T3C0.300
; #@! TA.AperFunction,Plated,PTH,ComponentDrill
T4C0.400
; #@! TA.AperFunction,Plated,PTH,ComponentDrill
T5C0.600
; #@! TA.AperFunction,Plated,PTH,ComponentDrill
T6C0.990
; #@! TA.AperFunction,Plated,PTH,ComponentDrill
T7C1.000
; #@! TA.AperFunction,Plated,PTH,ComponentDrill
T8C1.300
; #@! TA.AperFunction,Plated,PTH,ComponentDrill
T9C1.400
; #@! TA.AperFunction,Plated,PTH,ComponentDrill
T10C1.500
; #@! TA.AperFunction,Plated,PTH,ComponentDrill
T11C3.200
; #@! TA.AperFunction,NonPlated,NPTH,ComponentDrill
T12C0.850
; #@! TA.AperFunction,NonPlated,NPTH,ComponentDrill
T13C1.000
%
G90
G05
T1
X162.657Y-110.932
X162.657Y-122.932
X162.657Y-126.932
X162.66Y-94.932
X162.66Y-96.932
X162.66Y-98.932
X162.66Y-100.932
X162.66Y-102.932
X162.66Y-104.932
X162.66Y-106.932
X162.66Y-108.932
X162.66Y-112.932
X162.66Y-114.932
X162.66Y-116.932
X162.66Y-118.932
X162.66Y-120.932
X162.66Y-124.932
X162.66Y-128.932
X162.66Y-130.932
X162.66Y-132.932
X162.66Y-134.932
X162.66Y-136.932
X162.66Y-138.932
X162.66Y-140.932
X162.66Y-142.932
X162.66Y-144.932
X162.66Y-146.932
X162.66Y-148.932
X162.66Y-150.932
X162.66Y-152.932
X162.66Y-154.932
X162.66Y-156.932
X162.66Y-158.932
X162.66Y-160.932
X162.66Y-162.932
X162.66Y-164.932
X162.66Y-166.932
X162.66Y-168.932
X162.66Y-170.932
X162.66Y-172.932
X162.66Y-174.932
X162.66Y-176.932
X162.66Y-178.932
X162.66Y-180.932
X162.66Y-182.932
X162.66Y-184.932
X162.66Y-186.932
X162.66Y-188.932
X162.663Y-92.932
X164.16Y-91.432
X164.26Y-190.432
X164.46Y-111.529
X164.657Y-101.932
X164.657Y-157.932
X166.16Y-91.432
X166.26Y-190.432
X166.657Y-99.932
X166.657Y-103.932
X166.657Y-111.932
X166.657Y-115.932
X166.657Y-119.932
X166.657Y-131.932
X166.657Y-135.932
X166.657Y-143.932
X166.657Y-155.932
X166.657Y-159.932
X166.657Y-163.932
X168.16Y-91.432
X168.657Y-113.932
X168.657Y-117.932
X168.657Y-121.932
X168.657Y-133.932
X168.657Y-137.932
X168.657Y-141.932
X168.657Y-145.932
X168.657Y-149.932
X168.657Y-165.932
X169.657Y-110.882
X170.16Y-91.432
X170.16Y-130.532
X170.26Y-190.432
X170.657Y-111.932
X170.657Y-115.932
X170.657Y-119.932
X170.657Y-123.932
X170.657Y-131.932
X170.657Y-135.932
X170.657Y-139.932
X170.657Y-143.932
X170.657Y-147.932
X170.657Y-151.932
X170.657Y-167.932
X170.657Y-171.932
X170.657Y-175.932
X170.657Y-183.932
X171.16Y-187.932
X171.457Y-110.882
X171.56Y-93.932
X171.56Y-97.932
X171.56Y-105.932
X172.16Y-91.432
X172.26Y-190.432
X172.657Y-113.932
X172.657Y-117.932
X172.657Y-121.932
X172.657Y-125.932
X172.657Y-149.932
X172.657Y-157.932
X172.657Y-161.932
X172.657Y-169.932
X172.657Y-173.932
X172.657Y-177.932
X172.657Y-181.932
X172.657Y-185.932
X173.057Y-144.032
X173.56Y-95.932
X173.56Y-99.932
X173.56Y-103.932
X173.56Y-107.932
X173.96Y-144.932
X174.16Y-91.432
X174.26Y-190.432
X174.657Y-111.932
X174.657Y-115.932
X174.657Y-123.932
X174.657Y-135.932
X174.657Y-163.932
X174.657Y-171.932
X174.657Y-175.932
X175.407Y-121.482
X175.46Y-138.532
X175.46Y-141.832
X175.56Y-93.932
X175.56Y-101.932
X175.56Y-145.03
X175.857Y-166.632
X176.057Y-126.132
X176.16Y-91.432
X176.26Y-190.432
X176.457Y-120.094
X176.657Y-113.932
X176.657Y-117.932
X176.657Y-185.932
X177.56Y-95.932
X178.157Y-122.232
X178.16Y-91.432
X178.26Y-190.432
X178.657Y-129.832
X178.657Y-163.932
X178.757Y-123.032
X178.857Y-131.532
X179.157Y-125.732
X179.157Y-132.232
X179.16Y-154.982
X179.16Y-162.532
X179.257Y-130.932
X179.56Y-93.932
X179.56Y-97.932
X179.657Y-132.732
X179.857Y-125.532
X180.042Y-118.832
X180.16Y-91.432
X180.257Y-121.932
X180.36Y-145.932
X180.657Y-113.432
X180.657Y-114.432
X180.657Y-118.232
X180.696Y-122.671
X180.76Y-108.932
X180.76Y-181.932
X180.88Y-171.652
X180.96Y-168.157
X180.96Y-169.707
X181.085Y-145.132
X181.085Y-146.932
X181.16Y-173.257
X181.16Y-185.932
X181.256Y-124.931
X181.36Y-104.332
X181.36Y-105.132
X181.36Y-105.932
X181.36Y-106.732
X181.36Y-107.532
X181.36Y-108.332
X181.557Y-124.132
X181.657Y-113.432
X181.657Y-114.432
X181.86Y-94.157
X182.16Y-91.432
X182.16Y-103.532
X182.16Y-104.332
X182.16Y-105.132
X182.16Y-105.932
X182.16Y-106.732
X182.16Y-107.532
X182.16Y-108.332
X182.26Y-190.432
X182.56Y-156.744
X182.657Y-113.432
X182.657Y-114.432
X182.657Y-119.932
X182.657Y-123.932
X182.657Y-127.932
X182.657Y-183.932
X182.657Y-187.932
X182.66Y-171.632
X182.96Y-105.132
X182.96Y-105.932
X182.96Y-106.732
X182.96Y-107.532
X182.96Y-108.332
X182.96Y-152.682
X183.16Y-108.932
X183.46Y-94.157
X183.632Y-131.597
X183.632Y-136.447
X183.657Y-113.432
X183.657Y-114.432
X183.657Y-133.107
X183.657Y-138.107
X183.76Y-105.932
X183.76Y-106.732
X183.76Y-107.532
X183.76Y-108.332
X183.76Y-167.507
X183.857Y-120.932
X183.863Y-103.782
X184.16Y-91.432
X184.232Y-113.602
X184.26Y-190.432
X184.36Y-153.432
X184.507Y-134.182
X184.56Y-105.932
X184.657Y-113.432
X184.657Y-114.432
X184.657Y-119.732
X184.657Y-129.932
X185.36Y-105.132
X185.557Y-117.832
X185.657Y-113.432
X185.657Y-114.432
X186.063Y-103.782
X186.16Y-91.432
X186.26Y-190.432
X186.56Y-100.532
X186.657Y-113.432
X186.657Y-114.432
X186.657Y-155.932
X186.657Y-167.932
X186.657Y-183.932
X186.907Y-138.882
X186.972Y-140.497
X187.057Y-122.047
X187.157Y-129.232
X187.269Y-126.847
X187.319Y-128.447
X187.357Y-119.632
X187.657Y-113.432
X187.657Y-114.432
X187.657Y-120.432
X187.857Y-122.132
X187.857Y-138.732
X188.057Y-126.832
X188.063Y-103.507
X188.157Y-121.247
X188.16Y-91.432
X188.26Y-190.432
X188.619Y-139.097
X188.657Y-113.432
X188.657Y-114.432
X188.657Y-153.932
X188.657Y-157.932
X188.657Y-169.932
X188.657Y-177.932
X188.66Y-141.932
X188.919Y-129.397
X188.96Y-97.332
X189.157Y-128.632
X189.157Y-136.632
X189.158Y-127.857
X189.36Y-104.132
X189.719Y-137.247
X190.16Y-91.432
X190.16Y-100.732
X190.16Y-141.932
X190.26Y-190.432
X190.357Y-135.432
X190.582Y-156.532
X190.657Y-111.932
X190.657Y-167.932
X190.657Y-171.932
X190.657Y-175.932
X190.657Y-179.932
X190.657Y-183.932
X190.657Y-187.932
X190.857Y-136.132
X190.86Y-142.332
X191.56Y-141.532
X192.16Y-91.432
X192.26Y-190.432
X192.457Y-131.132
X192.518Y-129.793
X192.657Y-131.832
X192.657Y-153.932
X192.657Y-157.932
X192.657Y-161.932
X192.657Y-165.932
X192.657Y-169.932
X192.657Y-173.932
X192.657Y-177.932
X192.657Y-181.932
X192.657Y-185.932
X192.66Y-141.932
X192.819Y-132.497
X193.257Y-158.582
X193.36Y-102.132
X193.56Y-107.932
X193.857Y-130.332
X194.032Y-155.982
X194.057Y-134.932
X194.16Y-91.432
X194.16Y-102.132
X194.26Y-190.432
X194.657Y-129.132
X194.657Y-163.932
X194.657Y-167.932
X194.657Y-171.932
X194.657Y-175.932
X194.657Y-179.932
X194.657Y-183.932
X194.657Y-187.932
X194.757Y-126.847
X194.957Y-120.447
X194.957Y-122.047
X194.957Y-123.647
X194.957Y-125.247
X194.96Y-102.132
X195.257Y-121.232
X195.257Y-122.832
X195.257Y-124.432
X195.272Y-96.319
X195.357Y-129.432
X196.057Y-121.247
X196.057Y-122.847
X196.057Y-124.447
X196.057Y-126.047
X196.057Y-127.732
X196.057Y-129.332
X196.16Y-91.432
X196.26Y-190.432
X196.46Y-100.732
X196.46Y-103.332
X196.56Y-105.132
X196.657Y-153.932
X196.657Y-157.932
X196.657Y-161.932
X196.657Y-165.932
X196.657Y-169.932
X196.657Y-173.932
X196.657Y-177.932
X196.657Y-181.932
X196.657Y-185.932
X196.66Y-141.932
X197.132Y-156.532
X197.56Y-107.932
X198.16Y-91.432
X198.26Y-190.432
X198.519Y-138.097
X198.557Y-126.832
X198.607Y-131.732
X198.619Y-136.997
X198.657Y-163.932
X198.657Y-167.932
X198.657Y-171.932
X198.657Y-175.932
X198.657Y-179.932
X198.657Y-183.932
X198.657Y-187.932
X199.744Y-126.232
X199.744Y-130.532
X199.744Y-132.132
X199.744Y-133.732
X199.769Y-118.532
X199.794Y-120.297
X199.794Y-138.547
X199.794Y-140.297
X199.794Y-142.047
X200.16Y-91.432
X200.26Y-190.432
X200.41Y-104.932
X200.657Y-153.932
X200.657Y-165.932
X200.657Y-169.932
X200.657Y-173.932
X200.657Y-177.932
X200.657Y-181.932
X200.657Y-185.932
X200.719Y-128.497
X201.294Y-126.232
X201.294Y-130.697
X201.294Y-132.132
X201.294Y-133.732
X201.319Y-118.532
X201.344Y-120.297
X201.344Y-138.547
X201.344Y-140.297
X201.344Y-142.047
X201.36Y-112.632
X201.632Y-162.532
X201.682Y-157.332
X202.019Y-128.897
X202.16Y-91.432
X202.26Y-190.432
X202.36Y-112.532
X202.46Y-111.732
X202.557Y-138.032
X202.657Y-139.932
X202.657Y-155.932
X202.657Y-167.932
X202.657Y-171.932
X202.657Y-175.932
X202.657Y-183.932
X202.657Y-187.932
X202.707Y-131.205
X202.719Y-130.497
X202.819Y-119.397
X203.36Y-104.757
X203.657Y-162.557
X204.16Y-91.432
X204.26Y-190.432
X204.657Y-153.932
X204.657Y-157.932
X204.657Y-165.932
X204.657Y-169.932
X204.657Y-177.932
X205.16Y-104.732
X205.457Y-127.18
X205.657Y-162.557
X205.847Y-130.024
X205.857Y-112.932
X206.044Y-145.732
X206.06Y-102.132
X206.16Y-91.432
X206.257Y-112.132
X206.26Y-190.432
X206.357Y-125.432
X206.357Y-127.132
X206.607Y-129.682
X206.657Y-155.932
X206.657Y-167.932
X206.657Y-171.932
X206.657Y-175.932
X206.657Y-179.932
X207.057Y-144.732
X207.057Y-184.282
X207.257Y-136.582
X207.557Y-113.372
X207.557Y-114.922
X207.557Y-130.832
X207.557Y-140.532
X207.594Y-145.732
X207.657Y-129.432
X207.857Y-125.432
X207.857Y-136.182
X207.957Y-133.68
X208.16Y-91.432
X208.26Y-190.432
X208.307Y-131.232
X208.507Y-129.532
X208.657Y-153.932
X208.657Y-157.932
X208.657Y-161.932
X208.657Y-165.932
X208.707Y-168.982
X208.757Y-184.282
X208.807Y-136.382
X209.057Y-132.932
X209.057Y-140.532
X209.257Y-113.372
X209.457Y-129.532
X209.657Y-136.332
X210.137Y-183.854
X210.16Y-91.432
X210.257Y-115.732
X210.26Y-190.432
X210.457Y-114.832
X210.457Y-131.332
X210.657Y-155.932
X210.657Y-163.932
X210.657Y-167.932
X210.682Y-132.957
X211.057Y-130.682
X211.057Y-132.132
X211.257Y-155.432
X211.257Y-162.582
X212.16Y-91.432
X212.257Y-176.949
X212.26Y-190.432
X212.36Y-98.832
X212.66Y-149.532
X212.757Y-120.432
X212.858Y-148.13
X212.907Y-161.282
X213.01Y-155.482
X213.36Y-144.132
X213.36Y-158.432
X213.457Y-120.132
X213.521Y-188.071
X213.557Y-129.882
X213.557Y-130.732
X213.757Y-155.632
X213.857Y-112.132
X214.157Y-120.032
X214.157Y-158.282
X214.169Y-113.372
X214.172Y-114.897
X214.26Y-145.557
X214.26Y-147.107
X214.26Y-190.432
X214.357Y-132.232
X214.557Y-120.732
X214.557Y-127.032
X214.657Y-152.807
X214.96Y-141.132
X215.007Y-131.682
X215.057Y-130.832
X215.06Y-143.832
X215.082Y-165.932
X215.082Y-167.732
X215.197Y-119.232
X215.42Y-120.532
X215.432Y-175.242
X215.435Y-101.332
X215.457Y-127.182
X215.582Y-125.357
X215.657Y-130.132
X215.657Y-155.632
X215.765Y-115.179
X216.057Y-126.082
X216.16Y-95.932
X216.26Y-190.432
X216.419Y-119.767
X216.457Y-152.857
X216.507Y-126.882
X216.507Y-158.132
X216.507Y-161.282
X216.657Y-91.432
X216.657Y-169.932
X216.76Y-141.132
X216.841Y-188.093
X216.96Y-150.032
X216.96Y-158.782
X217.36Y-98.932
X217.36Y-140.132
X217.407Y-124.632
X217.46Y-155.582
X217.557Y-161.232
X217.66Y-95.932
X217.66Y-149.832
X217.857Y-139.532
X218.057Y-141.332
X218.107Y-125.232
X218.16Y-110.932
X218.257Y-152.857
X218.257Y-155.732
X218.26Y-190.432
X218.307Y-168.982
X218.657Y-91.432
X218.657Y-171.932
X218.657Y-187.932
X218.66Y-183.932
X218.757Y-123.932
X218.757Y-125.882
X218.96Y-111.332
X219.06Y-148.832
X219.11Y-101.332
X219.157Y-119.732
X219.157Y-124.432
X219.169Y-145.557
X219.169Y-147.107
X219.557Y-126.182
X219.719Y-113.372
X219.719Y-114.922
X219.849Y-116.116
X219.857Y-161.282
X219.857Y-165.932
X219.857Y-167.532
X220.057Y-124.032
X220.057Y-184.006
X220.082Y-180.932
X220.26Y-190.432
X220.36Y-111.232
X220.36Y-145.282
X220.457Y-124.732
X220.657Y-91.432
X220.657Y-165.932
X220.657Y-169.932
X220.657Y-173.932
X220.66Y-101.332
X220.66Y-150.332
X220.66Y-185.932
X220.76Y-110.532
X220.785Y-96.432
X220.857Y-125.482
X221.06Y-109.832
X221.36Y-145.332
X221.66Y-146.582
X221.76Y-94.932
X221.857Y-152.892
X221.86Y-139.832
X222.057Y-123.832
X222.26Y-190.432
X222.357Y-121.932
X222.36Y-140.332
X222.36Y-146.532
X222.46Y-109.432
X222.657Y-95.932
X222.657Y-135.932
X222.657Y-167.932
X222.657Y-171.932
X222.657Y-179.932
X222.657Y-187.932
X222.66Y-175.932
X222.66Y-183.932
X222.685Y-100.532
X223.357Y-122.532
X223.435Y-100.532
X223.557Y-123.682
X223.66Y-156.832
X223.66Y-177.932
X223.96Y-154.932
X224.26Y-190.432
X224.357Y-157.182
X224.482Y-162.932
X224.56Y-155.532
X224.657Y-91.432
X224.657Y-93.932
X224.657Y-101.932
X224.657Y-127.432
X224.657Y-128.932
X224.657Y-139.532
X224.657Y-161.932
X224.657Y-165.932
X224.657Y-169.932
X224.66Y-145.932
X224.66Y-149.932
X224.66Y-181.932
X224.66Y-185.932
X224.732Y-99.034
X224.807Y-129.732
X225.157Y-126.732
X225.207Y-140.432
X225.26Y-179.232
X225.262Y-98.504
X225.407Y-139.032
X225.407Y-141.182
X225.56Y-125.532
X225.719Y-145.457
X225.719Y-147.007
X225.757Y-128.382
X225.832Y-172.232
X225.857Y-123.932
X225.957Y-126.582
X225.957Y-129.732
X226.069Y-113.372
X226.069Y-114.922
X226.16Y-124.732
X226.244Y-115.832
X226.26Y-190.432
X226.585Y-176.157
X226.607Y-130.332
X226.657Y-91.432
X226.657Y-128.18
X226.657Y-163.932
X226.657Y-167.932
X226.66Y-147.932
X226.66Y-183.932
X226.66Y-187.932
X226.857Y-120.732
X226.857Y-140.332
X227.06Y-139.532
X227.157Y-174.232
X227.207Y-138.882
X227.76Y-124.932
X227.819Y-121.197
X227.857Y-134.332
X227.982Y-169.932
X228.119Y-122.647
X228.26Y-190.432
X228.335Y-176.157
X228.335Y-179.707
X228.46Y-142.632
X228.56Y-144.032
X228.657Y-91.432
X228.657Y-116.332
X228.657Y-117.932
X228.657Y-157.932
X228.657Y-161.932
X228.657Y-165.932
X228.66Y-145.932
X228.66Y-149.932
X228.66Y-185.932
X228.91Y-143.282
X229.157Y-172.232
X229.319Y-117.297
X229.982Y-167.932
X230.157Y-116.932
X230.26Y-190.432
X230.657Y-91.432
X230.657Y-115.932
X230.657Y-117.932
X230.657Y-163.932
X231.019Y-130.397
X231.982Y-169.932
X232.26Y-190.432
X232.382Y-130.932
X232.382Y-133.332
X232.385Y-136.232
X232.582Y-123.782
X232.607Y-129.282
X232.657Y-91.432
X232.657Y-157.932
X232.657Y-161.932
X232.657Y-165.932
X232.66Y-101.932
X232.66Y-153.932
X232.66Y-182.832
X232.785Y-187.382
X233.26Y-145.932
X233.26Y-149.932
X233.932Y-130.932
X233.932Y-133.332
X233.935Y-136.232
X233.982Y-167.932
X234.11Y-117.182
X234.11Y-122.082
X234.132Y-123.782
X234.26Y-190.432
X234.657Y-91.432
X234.657Y-115.932
X234.657Y-143.932
X234.657Y-147.932
X234.657Y-151.932
X234.66Y-174.232
X235.057Y-156.432
X235.357Y-125.882
X235.36Y-145.832
X235.46Y-144.432
X235.56Y-99.157
X235.76Y-117.182
X235.76Y-122.082
X235.857Y-155.932
X235.982Y-169.932
X235.985Y-187.393
X236.26Y-190.432
X236.457Y-128.157
X236.46Y-126.257
X236.657Y-91.432
X236.657Y-113.932
X236.657Y-145.932
X236.657Y-149.932
X236.657Y-153.932
X236.657Y-157.932
X236.657Y-161.932
X236.657Y-165.932
X236.76Y-133.532
X236.96Y-136.208
X237.157Y-172.232
X237.36Y-99.107
X237.41Y-117.182
X237.46Y-182.832
X237.657Y-154.982
X237.982Y-167.932
X238.26Y-190.432
X238.357Y-154.432
X238.46Y-134.68
X238.657Y-91.432
X238.657Y-115.932
X238.657Y-119.932
X238.657Y-123.932
X238.657Y-127.932
X238.657Y-131.932
X238.657Y-143.932
X238.657Y-151.932
X238.66Y-147.932
X238.96Y-99.107
X239.157Y-174.232
X239.563Y-101.732
X239.757Y-179.432
X239.982Y-169.932
X240.16Y-104.532
X240.26Y-190.432
X240.56Y-99.157
X240.657Y-91.432
X240.657Y-113.932
X240.657Y-117.932
X240.657Y-121.932
X240.657Y-125.932
X240.657Y-129.932
X240.657Y-133.932
X240.657Y-153.932
X240.657Y-157.932
X240.66Y-93.932
X241.457Y-95.132
X241.56Y-121.732
X241.56Y-144.532
X241.76Y-150.532
X241.982Y-167.932
X241.982Y-171.932
X241.982Y-175.932
X241.982Y-183.932
X241.982Y-187.932
X242.26Y-190.432
X242.657Y-91.432
X242.657Y-111.732
X242.657Y-119.932
X242.657Y-127.932
X242.657Y-131.932
X242.657Y-151.932
X242.893Y-115.591
X243.11Y-145.532
X243.135Y-147.432
X243.257Y-95.232
X243.26Y-98.332
X243.424Y-115.061
X243.982Y-169.932
X243.982Y-177.932
X244.06Y-121.032
X244.26Y-190.432
X244.657Y-91.432
X244.657Y-101.932
X244.657Y-129.932
X244.657Y-133.932
X244.657Y-153.932
X244.657Y-157.932
X244.657Y-161.932
X244.657Y-165.932
X244.66Y-93.932
X245.257Y-100.707
X245.982Y-167.932
X245.982Y-171.932
X245.982Y-175.932
X245.982Y-179.932
X245.982Y-183.932
X245.982Y-187.932
X246.26Y-190.432
X246.41Y-145.532
X246.657Y-91.432
X246.657Y-127.932
X246.657Y-163.932
X246.66Y-123.932
X246.66Y-151.107
X246.735Y-147.432
X247.057Y-100.757
X247.982Y-169.932
X247.982Y-173.932
X247.982Y-177.932
X247.982Y-181.932
X247.982Y-185.932
X248.26Y-190.432
X248.657Y-91.432
X248.657Y-97.932
X248.657Y-129.932
X248.657Y-153.932
X248.657Y-157.932
X248.657Y-161.932
X248.657Y-165.932
X248.66Y-93.932
X248.76Y-145.532
X249.072Y-115.494
X249.085Y-111.832
X249.097Y-102.244
X249.097Y-104.132
X249.097Y-113.694
X249.11Y-107.932
X249.11Y-109.932
X249.141Y-106.032
X249.56Y-150.432
X249.982Y-167.932
X249.982Y-171.932
X249.982Y-175.932
X249.982Y-179.932
X249.982Y-183.932
X249.982Y-187.932
X250.26Y-190.432
X250.558Y-136.233
X250.657Y-91.432
X250.657Y-95.932
X250.657Y-127.932
X250.657Y-151.932
X250.657Y-163.932
X250.66Y-119.932
X250.66Y-123.932
X251.308Y-135.383
X251.472Y-115.269
X251.982Y-169.932
X251.982Y-173.932
X251.982Y-177.932
X251.982Y-181.932
X251.982Y-185.932
X252.26Y-190.432
X252.657Y-91.432
X252.657Y-97.932
X252.657Y-129.932
X252.657Y-133.932
X252.657Y-153.932
X252.657Y-157.932
X252.657Y-161.932
X252.657Y-165.932
X252.66Y-145.932
X253.56Y-120.932
X253.86Y-115.832
X253.982Y-167.932
X253.982Y-171.932
X253.982Y-175.932
X253.982Y-179.932
X253.982Y-183.932
X253.982Y-187.932
X254.16Y-144.232
X254.16Y-182.732
X254.26Y-190.432
X254.657Y-91.432
X254.657Y-123.932
X254.657Y-127.932
X254.657Y-131.932
X254.657Y-147.932
X254.657Y-163.932
X254.66Y-151.207
X255.982Y-169.932
X255.982Y-173.932
X255.982Y-177.932
X255.982Y-181.932
X255.982Y-185.932
X256.26Y-190.432
X256.657Y-91.432
X256.657Y-97.932
X256.657Y-117.932
X256.657Y-125.932
X256.657Y-129.932
X256.657Y-133.932
X256.657Y-145.932
X256.657Y-149.932
X256.657Y-153.932
X256.657Y-157.932
X256.657Y-161.932
X256.657Y-165.932
X257.982Y-167.932
X257.982Y-171.932
X257.982Y-175.932
X257.982Y-183.932
X257.982Y-187.932
X258.26Y-190.432
X258.657Y-91.432
X258.657Y-131.932
X258.657Y-163.932
X258.66Y-119.932
X258.66Y-140.507
X258.66Y-145.375
X259.16Y-133.332
X259.16Y-134.125
X259.16Y-135.375
X259.16Y-136.625
X259.16Y-137.875
X259.16Y-144.132
X259.16Y-157.432
X259.257Y-142.875
X259.56Y-103.132
X259.66Y-98.182
X259.66Y-132.432
X259.982Y-169.932
X259.982Y-177.932
X260.26Y-190.432
X260.657Y-91.432
X260.657Y-153.932
X260.657Y-161.932
X260.657Y-165.932
X261.66Y-92.932
X261.66Y-94.932
X261.66Y-96.932
X261.66Y-98.932
X261.66Y-100.932
X261.66Y-102.932
X261.66Y-104.932
X261.66Y-106.932
X261.66Y-108.932
X261.66Y-110.932
X261.66Y-112.932
X261.66Y-114.932
X261.66Y-116.932
X261.66Y-118.932
X261.66Y-120.932
X261.66Y-122.932
X261.66Y-124.932
X261.66Y-126.932
X261.66Y-128.932
X261.66Y-130.932
X261.66Y-132.932
X261.66Y-134.932
X261.66Y-136.932
X261.66Y-138.932
X261.66Y-140.932
X261.66Y-142.932
X261.66Y-144.932
X261.66Y-146.932
X261.66Y-148.932
X261.66Y-150.932
X261.66Y-152.932
X261.66Y-154.932
X261.66Y-156.932
X261.66Y-158.932
X261.66Y-160.932
X261.66Y-162.932
X261.66Y-164.932
X261.66Y-166.932
X261.66Y-168.932
X261.66Y-170.932
X261.66Y-172.932
X261.66Y-174.932
X261.66Y-176.932
X261.66Y-178.932
X261.66Y-180.932
X261.66Y-182.932
X261.66Y-184.932
X261.66Y-186.932
X261.66Y-188.932
T2
X246.66Y-132.682
X246.66Y-133.782
X247.21Y-132.132
X247.21Y-133.232
X247.21Y-134.332
X247.76Y-132.682
X247.76Y-133.782
X248.31Y-132.132
X248.31Y-133.232
X248.31Y-134.332
X248.86Y-132.682
X248.86Y-133.782
T3
X185.26Y-160.432
X185.26Y-162.432
X185.26Y-164.432
X185.26Y-166.432
X185.26Y-168.432
X185.26Y-170.432
X185.26Y-172.432
X185.26Y-174.432
X185.26Y-176.432
X185.26Y-178.432
X185.26Y-180.432
X185.26Y-182.432
X185.26Y-184.432
X185.26Y-186.432
X185.26Y-188.432
X185.26Y-190.432
X187.26Y-160.432
X191.26Y-160.432
X193.26Y-160.432
X195.26Y-160.432
X197.26Y-160.432
X203.26Y-160.432
X205.26Y-160.432
X207.26Y-160.432
X209.26Y-160.432
X211.26Y-160.432
X213.26Y-160.432
X215.26Y-160.432
X217.26Y-160.432
X219.26Y-160.432
X221.26Y-160.432
X223.26Y-160.432
X225.26Y-160.432
X227.26Y-160.432
X229.26Y-160.432
X231.26Y-160.432
X233.26Y-160.432
X237.26Y-160.432
X239.26Y-160.432
X241.26Y-160.432
X243.26Y-160.432
X245.26Y-160.432
X247.26Y-160.432
X249.26Y-160.432
X251.26Y-160.432
X253.26Y-160.432
X255.26Y-160.432
X261.26Y-160.432
T4
X203.31Y-98.442
X203.31Y-99.792
X204.16Y-98.442
X204.16Y-99.792
X205.01Y-98.442
X205.01Y-99.792
X205.86Y-98.442
X205.86Y-99.792
X206.71Y-98.442
X206.71Y-99.792
X207.56Y-98.442
X207.56Y-99.792
X208.41Y-98.442
X208.41Y-99.792
X209.26Y-98.442
X209.26Y-99.792
T6
X233.382Y-93.644
X237.882Y-93.644
X246.982Y-93.644
X251.482Y-93.644
T8
X232.132Y-96.134
X239.142Y-96.134
X245.732Y-96.134
X252.742Y-96.134
T9
X187.792Y-173.997
X187.792Y-180.347
X187.792Y-186.697
X204.022Y-173.997
X204.022Y-180.347
X204.022Y-186.697
X243.16Y-173.982
X243.16Y-180.332
X243.16Y-186.682
X259.39Y-173.982
X259.39Y-180.332
X259.39Y-186.682
T10
X165.16Y-106.932
T11
X166.66Y-95.432
X189.16Y-163.432
X235.16Y-163.432
X257.66Y-95.432
T12
X216.935Y-92.532
X219.935Y-92.532
T13
X166.229Y-139.996
X166.229Y-147.972
T5
G00X201.96Y-95.832
M15
G01X201.96Y-95.032
M16
G05
G00X201.96Y-99.562
M15
G01X201.96Y-98.062
M16
G05
G00X210.61Y-95.832
M15
G01X210.61Y-95.032
M16
G05
G00X210.61Y-99.562
M15
G01X210.61Y-98.062
M16
G05
T7
G00X165.66Y-181.712
M15
G01X166.66Y-181.712
M16
G05
G00X165.66Y-187.232
M15
G01X166.66Y-187.232
M16
G05
G00X167.66Y-177.632
M15
G01X168.66Y-177.632
M16
G05
G00X167.66Y-183.532
M15
G01X168.66Y-183.532
M16
G05
G00X167.66Y-189.632
M15
G01X168.66Y-189.632
M16
G05
G00X170.96Y-100.932
M15
G01X170.96Y-102.932
M16
G05
G00X176.66Y-98.932
M15
G01X174.66Y-98.932
M16
G05
G00X176.66Y-104.932
M15
G01X174.66Y-104.932
M16
G05
G00X177.66Y-181.712
M15
G01X178.66Y-181.712
M16
G05
G00X177.66Y-187.232
M15
G01X178.66Y-187.232
M16
G05
G00X179.66Y-177.632
M15
G01X180.66Y-177.632
M16
G05
G00X179.66Y-183.532
M15
G01X180.66Y-183.532
M16
G05
G00X179.66Y-189.632
M15
G01X180.66Y-189.632
M16
G05
M30
